<?xml version="1.0" encoding="utf-8"?>
<!-- Generator: Adobe Illustrator 16.0.0, SVG Export Plug-In . SVG Version: 6.00 Build 0)  -->
<!DOCTYPE svg PUBLIC "-//W3C//DTD SVG 1.1//EN" "http://www.w3.org/Graphics/SVG/1.1/DTD/svg11.dtd">
<svg version="1.1" id="Warstwa_1" xmlns="http://www.w3.org/2000/svg" xmlns:xlink="http://www.w3.org/1999/xlink" x="0px" y="0px"
	 width="200px" height="200px" viewBox="0 0 200 200" enable-background="new 0 0 200 200" xml:space="preserve">
<g>
	<radialGradient id="SVGID_1_" cx="53.0498" cy="30.5" r="209.4684" gradientUnits="userSpaceOnUse">
		<stop  offset="0" style="stop-color:#ED6F74"/>
		<stop  offset="1" style="stop-color:#ED1C24"/>
	</radialGradient>
	<path fill="url(#SVGID_1_)" d="M101.71,138.3h0.854c0,0-1.78-30.042-2.566-30.042c-0.777,0-2.301,28.361-2.553,29.973
		c-4.735,0.309-18.559,2.336-31.428,15.204c0,0-1.271,3.619,0.783,3.717c0.293,0.013,14.628-16.526,32.347-16.624
		c17.719,0.098,32.054,16.637,32.347,16.624c2.054-0.098,0.782-3.717,0.782-3.717C120.108,141.268,107.095,138.793,101.71,138.3z"/>
	<radialGradient id="SVGID_2_" cx="53.0498" cy="30.5" r="209.4684" gradientUnits="userSpaceOnUse">
		<stop  offset="0" style="stop-color:#ED6F74"/>
		<stop  offset="1" style="stop-color:#ED1C24"/>
	</radialGradient>
	<path fill="url(#SVGID_2_)" d="M82.979,94.471c2.06,0.587,8.366-2.2,8.366-2.2l7.804,4.254l7.802-4.254c0,0,6.308,2.788,8.368,2.2
		c2.059-0.586,3.221-5.72,3.221-6.453c0-0.734-6.601-1.614-6.601-1.614l-12.79,4.547l-12.79-4.547c0,0-6.601,0.88-6.601,1.614
		C79.757,88.75,80.917,93.884,82.979,94.471z"/>
	<radialGradient id="SVGID_3_" cx="53.0498" cy="30.5" r="209.4684" gradientUnits="userSpaceOnUse">
		<stop  offset="0" style="stop-color:#ED6F74"/>
		<stop  offset="1" style="stop-color:#ED1C24"/>
	</radialGradient>
	<path fill="url(#SVGID_3_)" d="M194.542,79.315c-0.783-3.129-7.824-16.233-11.148-15.842c-1.927,0.227-6.28,2.555-9.605,4.473
		c-0.562-8.386-5.255-18.656-11.818-28.259l8.583-2.714c-3.814-7.333-33.567-22.851-33.567-22.851l2.91-7.658
		c-10.601-8.196-37.913,1.304-39.896,2.009C98.018,7.768,70.705-1.732,60.104,6.464l2.91,7.658c0,0-29.753,15.518-33.567,22.851
		l8.583,2.714C31.467,49.29,26.773,59.56,26.211,67.946c-3.325-1.918-7.678-4.246-9.604-4.473
		c-3.326-0.391-10.366,12.713-11.15,15.842c-0.781,3.129,8.997,26.401,10.758,28.943c1.344,1.943,7.129,1.715,9.791,1.5
		c-2.786,7.853-5.476,15.794-5.88,18.273c-0.88,5.391,11.961,29.118,11.961,29.118l7.334-25.718c0,0,2.933,29.335,5.574,33.146
		c2.535,3.662,51.036,30.047,54.881,32.137v0.135c0,0,0.046-0.023,0.125-0.066c0.079,0.043,0.125,0.066,0.125,0.066v-0.135
		c3.844-2.09,52.346-28.475,54.88-32.137c2.641-3.812,5.574-33.146,5.574-33.146l7.334,25.718c0,0,12.841-23.729,11.961-29.118
		c-0.405-2.479-3.095-10.423-5.88-18.273c2.661,0.215,8.447,0.443,9.791-1.5C185.546,105.716,195.325,82.444,194.542,79.315z
		 M22.082,104.543c-4.498-0.248-12.321-26.357-12.321-26.357s5.28-7.478,7.041-8.259c1.193-0.531,7.052,4.684,10.708,8.103
		c0.395,1.674,0.782,3.145,1.153,4.434c-1.055-1.308-1.802-2.185-1.802-2.185s-5.952-2.164-6.539,0
		c-0.587,2.165-0.978,11.014,0,11.188c0.978,0.171,4.498,1.931,4.498,1.931l-1.526,3.129c0,0,3.479,3.397,5.605,5.19
		c-0.422,1.153-0.861,2.37-1.308,3.612C26.804,105.093,25.109,104.709,22.082,104.543z M134.672,160.769
		c-3.667,3.08-8.654-1.905-8.654-1.905s-7.627,10.269-11.147,12.026l-3.374-7.921l-12.35,12.32l-12.351-12.32l-3.373,7.921
		c-3.521-1.761-11.148-12.026-11.148-12.026s-4.987,4.985-8.654,1.905c-3.667-3.079-3.979-12.467-2.513-14.668
		c1.467-2.198,11.019-7.626,11.019-7.626l-8.213-1.32l15.109-38.136c0,0-3.08-0.587-5.72-2.2c-2.641-1.613-4.254-9.241-3.814-10.121
		c0.441-0.88,12.174-8.36,14.961-8.507s14.697,4.694,14.697,4.694s11.91-4.841,14.696-4.694c2.788,0.147,14.522,7.627,14.962,8.507
		c0.44,0.88-1.173,8.507-3.814,10.121c-2.641,1.613-5.72,2.2-5.72,2.2l15.108,38.135l-8.214,1.321c0,0,9.553,5.428,11.019,7.626
		C138.653,148.302,138.339,157.689,134.672,160.769z M56.646,70.562c0,0,11.488-4.97,15.366-3.83
		c3.877,1.14,10.966,8.277,10.966,8.277s-9.384,1.833-14.01,2.264C64.343,77.704,56.646,70.562,56.646,70.562z M129.328,77.274
		c-4.626-0.431-14.009-2.264-14.009-2.264s7.089-7.137,10.965-8.277c3.878-1.141,15.367,3.83,15.367,3.83
		S133.953,77.705,129.328,77.274z M144.52,67.971c0,0-15.45-11.539-22.687-5.477c-7.236,6.063-14.863,10.953-14.863,10.953
		s-5.28-0.587-4.889-3.716s6.258-8.213,6.258-8.213s-0.782-2.739-9.192,2.151c-8.409-4.89-9.192-2.151-9.192-2.151
		s5.868,5.083,6.258,8.213c0.391,3.129-4.89,3.716-4.89,3.716s-7.627-4.89-14.863-10.953c-7.236-6.062-22.687,5.477-22.687,5.477
		s-6.258-27.44,16.624-27.379c11.451,0.03,28.75,16.427,28.75,16.427s17.298-16.397,28.749-16.427
		C150.779,40.531,144.52,67.971,144.52,67.971z M177.918,104.543c-3.027,0.166-4.722,0.55-5.509,0.785
		c-0.447-1.242-0.886-2.459-1.308-3.613c2.125-1.792,5.605-5.19,5.605-5.19l-1.526-3.129c0,0,3.521-1.76,4.498-1.931
		c0.978-0.172,0.587-9.021,0-11.186c-0.586-2.164-6.539,0-6.539,0s-0.747,0.876-1.802,2.185c0.372-1.289,0.758-2.759,1.153-4.434
		c3.656-3.419,9.515-8.633,10.708-8.103c1.761,0.782,7.041,8.259,7.041,8.259S182.417,104.295,177.918,104.543z"/>
</g>
</svg>
