<?xml version="1.0" encoding="utf-8"?>
<!-- Generator: Adobe Illustrator 16.0.0, SVG Export Plug-In . SVG Version: 6.00 Build 0)  -->
<!DOCTYPE svg PUBLIC "-//W3C//DTD SVG 1.1//EN" "http://www.w3.org/Graphics/SVG/1.1/DTD/svg11.dtd">
<svg version="1.1" id="Warstwa_1" xmlns="http://www.w3.org/2000/svg" xmlns:xlink="http://www.w3.org/1999/xlink" x="0px" y="0px"
	 width="707.1px" height="200px" viewBox="0 0 707.1 200" enable-background="new 0 0 707.1 200" xml:space="preserve">
<g>
	<path fill="#333333" d="M285.617,125.144h-16.253L226.05,67.527l-12.434,11.052v46.564h-13.815V6.335h13.815v58.917l53.878-58.917
		h16.334l-47.783,51.603L285.617,125.144z"/>
	<path fill="#333333" d="M392.761,65.577c0,19.016-4.811,33.969-14.426,44.858c-9.615,10.891-22.985,16.334-40.104,16.334
		c-17.5,0-31.002-5.348-40.51-16.049c-9.508-10.699-14.262-25.803-14.262-45.305c0-19.341,4.767-34.334,14.303-44.98
		c9.535-10.646,23.079-15.969,40.632-15.969c17.066,0,30.394,5.418,39.982,16.253C387.966,31.555,392.761,46.508,392.761,65.577z
		 M298.087,65.577c0,16.09,3.425,28.293,10.28,36.61c6.853,8.316,16.808,12.475,29.865,12.475c13.165,0,23.105-4.145,29.824-12.434
		c6.717-8.289,10.076-20.506,10.076-36.651c0-15.98-3.346-28.104-10.035-36.366c-6.691-8.261-16.592-12.393-29.703-12.393
		c-13.165,0-23.174,4.158-30.027,12.474C301.512,37.609,298.087,49.704,298.087,65.577z"/>
	<path fill="#333333" d="M492.753,125.144h-16.254l-43.314-57.616l-12.434,11.052v46.564h-13.814V6.335h13.814v58.917L474.63,6.335
		h16.334l-47.783,51.603L492.753,125.144z"/>
	<path fill="#333333" d="M599.894,65.577c0,19.016-4.809,33.969-14.424,44.858c-9.617,10.891-22.984,16.334-40.104,16.334
		c-17.5,0-31.004-5.348-40.512-16.049c-9.508-10.699-14.262-25.803-14.262-45.305c0-19.341,4.768-34.334,14.303-44.98
		c9.535-10.646,23.08-15.969,40.633-15.969c17.066,0,30.393,5.418,39.982,16.253C595.099,31.555,599.894,46.508,599.894,65.577z
		 M505.222,65.577c0,16.09,3.426,28.293,10.279,36.61c6.852,8.316,16.807,12.475,29.865,12.475c13.164,0,23.105-4.145,29.824-12.434
		c6.717-8.289,10.076-20.506,10.076-36.651c0-15.98-3.346-28.104-10.037-36.366c-6.689-8.261-16.592-12.393-29.701-12.393
		c-13.166,0-23.176,4.158-30.027,12.474C508.647,37.609,505.222,49.704,505.222,65.577z"/>
</g>
<g>
	<path fill="#ED1C24" d="M100.297,138.616h0.854c0,0-1.78-30.042-2.566-30.042c-0.777,0-2.301,28.361-2.553,29.973
		c-4.735,0.309-18.559,2.336-31.428,15.204c0,0-1.271,3.619,0.783,3.717c0.293,0.013,14.628-16.527,32.347-16.624
		c17.719,0.097,32.054,16.637,32.347,16.624c2.054-0.098,0.782-3.717,0.782-3.717C118.695,141.584,105.681,139.11,100.297,138.616z"
		/>
	<path fill="#ED1C24" d="M81.565,94.787c2.06,0.587,8.366-2.2,8.366-2.2l7.804,4.254l7.802-4.254c0,0,6.308,2.788,8.368,2.2
		c2.059-0.586,3.221-5.72,3.221-6.453c0-0.734-6.601-1.614-6.601-1.614l-12.79,4.547l-12.79-4.547c0,0-6.601,0.88-6.601,1.614
		C78.344,89.066,79.504,94.2,81.565,94.787z"/>
	<path fill="#ED1C24" d="M193.129,79.631c-0.783-3.129-7.824-16.233-11.148-15.842c-1.927,0.227-6.28,2.555-9.605,4.473
		c-0.562-8.386-5.255-18.656-11.818-28.259l8.583-2.714c-3.814-7.333-33.567-22.851-33.567-22.851l2.91-7.658
		c-10.601-8.196-37.913,1.304-39.896,2.009C96.604,8.084,69.291-1.416,58.69,6.78l2.91,7.658c0,0-29.753,15.518-33.567,22.851
		l8.583,2.714c-6.563,9.603-11.256,19.873-11.818,28.259c-3.325-1.918-7.678-4.246-9.604-4.473
		C11.868,63.398,4.828,76.502,4.044,79.631c-0.781,3.129,8.997,26.401,10.758,28.943c1.344,1.943,7.129,1.715,9.791,1.5
		c-2.786,7.853-5.476,15.794-5.88,18.273c-0.88,5.391,11.961,29.12,11.961,29.12l7.334-25.718c0,0,2.933,29.335,5.574,33.148
		c2.535,3.662,51.036,30.047,54.881,32.135v0.135c0,0,0.046-0.024,0.125-0.068c0.079,0.044,0.125,0.068,0.125,0.068v-0.135
		c3.844-2.088,52.346-28.473,54.88-32.135c2.641-3.813,5.574-33.148,5.574-33.148l7.334,25.718c0,0,12.841-23.729,11.961-29.12
		c-0.405-2.479-3.095-10.421-5.88-18.273c2.661,0.215,8.447,0.443,9.791-1.5C184.133,106.032,193.911,82.76,193.129,79.631z
		 M20.668,104.859C16.17,104.611,8.347,78.502,8.347,78.502s5.28-7.478,7.041-8.259c1.193-0.531,7.052,4.684,10.708,8.103
		c0.395,1.674,0.782,3.145,1.153,4.434c-1.055-1.308-1.802-2.185-1.802-2.185s-5.952-2.164-6.539,0
		c-0.587,2.165-0.978,11.014,0,11.186c0.978,0.171,4.498,1.931,4.498,1.931l-1.526,3.129c0,0,3.479,3.397,5.605,5.19
		c-0.422,1.155-0.861,2.372-1.308,3.613C25.39,105.409,23.696,105.025,20.668,104.859z M133.259,161.085
		c-3.667,3.08-8.654-1.906-8.654-1.906s-7.627,10.268-11.147,12.027l-3.374-7.921l-12.35,12.32l-12.351-12.32l-3.373,7.921
		c-3.521-1.76-11.148-12.027-11.148-12.027s-4.987,4.986-8.654,1.906c-3.667-3.079-3.979-12.467-2.513-14.668
		c1.467-2.198,11.019-7.626,11.019-7.626l-8.213-1.321L77.61,99.334c0,0-3.08-0.587-5.72-2.2c-2.641-1.613-4.254-9.241-3.814-10.121
		c0.441-0.88,12.174-8.36,14.961-8.507c2.787-0.147,14.697,4.694,14.697,4.694s11.91-4.841,14.696-4.694
		c2.788,0.147,14.522,7.627,14.962,8.507c0.44,0.88-1.173,8.507-3.814,10.121c-2.641,1.613-5.72,2.2-5.72,2.2l15.108,38.136
		l-8.214,1.321c0,0,9.553,5.428,11.019,7.626C137.239,148.618,136.926,158.006,133.259,161.085z M55.233,70.878
		c0,0,11.488-4.97,15.366-3.83c3.877,1.14,10.966,8.277,10.966,8.277s-9.384,1.833-14.01,2.264S55.233,70.878,55.233,70.878z
		 M127.914,77.59c-4.626-0.431-14.009-2.264-14.009-2.264s7.089-7.137,10.965-8.277c3.878-1.141,15.367,3.83,15.367,3.83
		S132.539,78.021,127.914,77.59z M143.106,68.287c0,0-15.45-11.539-22.687-5.477c-7.236,6.063-14.863,10.953-14.863,10.953
		s-5.28-0.587-4.889-3.716c0.391-3.129,6.258-8.213,6.258-8.213s-0.782-2.739-9.192,2.151c-8.409-4.89-9.192-2.151-9.192-2.151
		s5.868,5.083,6.258,8.213c0.391,3.129-4.89,3.716-4.89,3.716s-7.627-4.89-14.863-10.953c-7.236-6.062-22.687,5.477-22.687,5.477
		s-6.258-27.44,16.624-27.379c11.451,0.03,28.75,16.427,28.75,16.427s17.298-16.397,28.749-16.427
		C149.365,40.847,143.106,68.287,143.106,68.287z M176.505,104.859c-3.027,0.166-4.722,0.55-5.509,0.785
		c-0.447-1.241-0.886-2.458-1.308-3.613c2.125-1.793,5.605-5.19,5.605-5.19l-1.526-3.129c0,0,3.521-1.76,4.498-1.931
		c0.978-0.172,0.587-9.021,0-11.186c-0.586-2.164-6.539,0-6.539,0s-0.747,0.876-1.802,2.185c0.372-1.289,0.758-2.759,1.153-4.434
		c3.656-3.419,9.515-8.633,10.708-8.103c1.761,0.782,7.041,8.259,7.041,8.259S181.003,104.611,176.505,104.859z"/>
</g>
<g>
	<path fill="#ED1C24" d="M292.545,153.91c-1.547,0-2.946,0.286-4.198,0.857c-1.253,0.573-2.333,1.326-3.239,2.263
		c-0.907,0.936-1.627,2.002-2.159,3.197c-0.534,1.197-0.88,2.419-1.04,3.666h19.672c0-3.067-0.827-5.499-2.479-7.293
		C297.45,154.807,295.264,153.91,292.545,153.91z"/>
	<path fill="#ED1C24" d="M199.801,130.021V197h339.955c-0.281-0.088-0.563-0.175-0.83-0.268l1.199-5.694
		c1.386,0.571,2.972,1.039,4.758,1.404c1.786,0.363,3.745,0.546,5.878,0.546c3.839,0,6.584-0.755,8.237-2.263
		c1.651-1.509,2.479-3.952,2.479-7.332v-1.247c-0.748,0.416-1.894,0.857-3.438,1.325c-1.547,0.469-3.332,0.702-5.357,0.702
		c-2.188,0-4.227-0.351-6.118-1.053c-1.893-0.702-3.546-1.768-4.958-3.198c-1.413-1.43-2.532-3.249-3.358-5.46
		c-0.827-2.21-1.239-4.822-1.239-7.839c0-2.652,0.386-5.082,1.159-7.293c0.771-2.21,1.892-4.121,3.358-5.733
		c1.466-1.611,3.266-2.872,5.398-3.782c2.131-0.909,4.558-1.365,7.276-1.365c3.198,0,5.93,0.222,8.196,0.663
		c2.266,0.442,4.171,0.871,5.718,1.287v32.292c0,5.615-1.452,9.672-4.358,12.168c-1.01,0.867-2.21,1.574-3.577,2.14h39.716v-66.979
		H199.801z M442.165,134.644c1.013-0.936,2.212-1.403,3.599-1.403c1.439,0,2.652,0.468,3.638,1.403
		c0.986,0.937,1.48,2.211,1.48,3.822c0,1.612-0.494,2.886-1.48,3.822c-0.985,0.936-2.198,1.404-3.638,1.404
		c-1.387,0-2.586-0.469-3.599-1.404c-1.013-0.937-1.52-2.21-1.52-3.822C440.646,136.854,441.152,135.58,442.165,134.644z
		 M256.4,142.678h-13.594V185.5h-6.558v-42.822h-13.594v-5.46H256.4V142.678z M308.299,169.12H281.75
		c0.266,3.744,1.532,6.591,3.798,8.541c2.266,1.95,5.45,2.925,9.556,2.925c2.345,0,4.344-0.182,5.998-0.546
		c1.652-0.363,2.905-0.753,3.759-1.17l0.879,5.46c-0.8,0.417-2.239,0.858-4.318,1.326s-4.426,0.702-7.037,0.702
		c-3.199,0-6.011-0.481-8.437-1.443c-2.426-0.962-4.438-2.274-6.038-3.939c-1.599-1.663-2.799-3.652-3.599-5.967
		c-0.8-2.312-1.199-4.822-1.199-7.526c0-3.224,0.506-6.032,1.519-8.425c1.012-2.391,2.346-4.367,3.999-5.928
		c1.652-1.56,3.519-2.729,5.598-3.51c2.08-0.78,4.211-1.17,6.397-1.17c5.011,0,8.876,1.521,11.596,4.562
		c2.718,3.042,4.078,7.657,4.078,13.846V169.12z M355.081,183.667c-2.613,1.794-6.746,2.691-12.396,2.691
		c-2.559,0-4.905-0.209-7.037-0.624c-2.133-0.416-4.158-1.04-6.078-1.872l1.279-5.851c1.866,0.833,3.825,1.521,5.877,2.067
		c2.052,0.546,4.251,0.819,6.598,0.819c6.023,0,9.037-1.482,9.037-4.446c0-1.3-0.548-2.366-1.64-3.198
		c-1.093-0.831-2.453-1.56-4.079-2.184s-3.398-1.235-5.317-1.833c-1.918-0.598-3.692-1.339-5.318-2.224
		c-1.626-0.883-2.986-1.976-4.078-3.275c-1.093-1.3-1.64-2.99-1.64-5.07c0-2.911,1.212-5.343,3.638-7.293
		c2.426-1.95,6.224-2.925,11.395-2.925c2.026,0,4.119,0.144,6.277,0.429c2.161,0.286,4.011,0.663,5.559,1.131l-1.2,5.772
		c-0.428-0.207-1.013-0.43-1.76-0.663c-0.747-0.234-1.598-0.441-2.559-0.624c-0.959-0.182-1.986-0.324-3.078-0.429
		c-1.093-0.104-2.146-0.156-3.16-0.156c-5.757,0-8.636,1.534-8.636,4.602c0,1.092,0.546,2.016,1.64,2.77
		c1.092,0.754,2.465,1.442,4.119,2.066c1.652,0.624,3.438,1.262,5.357,1.911c1.92,0.651,3.706,1.443,5.358,2.379
		c1.651,0.937,3.025,2.067,4.119,3.394c1.091,1.326,1.638,3.003,1.638,5.03C358.998,179.338,357.692,181.873,355.081,183.667z
		 M409.098,185.578c-1.627,0.52-3.639,0.78-6.037,0.78c-2.773,0-5.038-0.312-6.797-0.937c-1.761-0.624-3.133-1.56-4.119-2.808
		c-0.987-1.248-1.667-2.795-2.039-4.642c-0.374-1.845-0.561-3.99-0.561-6.435V154.69h-7.836v-5.383h7.836v-10.14l6.559-1.092v11.231
		h15.674v5.383h-15.674v16.848c0,1.82,0.132,3.303,0.399,4.446c0.266,1.144,0.706,2.066,1.319,2.769
		c0.612,0.702,1.399,1.184,2.358,1.443c0.961,0.261,2.132,0.39,3.52,0.39c1.919,0,3.464-0.156,4.638-0.468
		c1.172-0.312,2.292-0.728,3.359-1.248l0.959,5.46C411.909,184.642,410.724,185.059,409.098,185.578z M463.677,184.915
		c-0.588,0.234-1.268,0.456-2.039,0.663c-0.774,0.207-1.627,0.39-2.56,0.546s-1.907,0.234-2.918,0.234
		c-2.347,0-4.292-0.312-5.838-0.937c-1.547-0.624-2.786-1.56-3.719-2.808s-1.587-2.795-1.959-4.642
		c-0.374-1.845-0.56-3.99-0.56-6.435V154.69h-10.716v-5.383h17.272v22.23c0,3.588,0.506,5.994,1.52,7.215
		c1.012,1.223,2.531,1.833,4.559,1.833c1.545,0,2.971-0.182,4.278-0.546c1.306-0.363,2.331-0.753,3.078-1.17l0.959,5.46
		C464.716,184.486,464.263,184.681,463.677,184.915z M515.976,185.5h-6.558v-20.046c0-2.34-0.214-4.237-0.641-5.694
		c-0.427-1.455-1.026-2.586-1.799-3.393c-0.772-0.806-1.707-1.365-2.798-1.677c-1.094-0.312-2.28-0.469-3.56-0.469
		c-1.067,0-2.198,0.066-3.398,0.195c-1.199,0.131-2.359,0.3-3.479,0.507V185.5h-6.638v-35.178c2.399-0.572,4.785-1.015,7.157-1.326
		c2.372-0.312,4.599-0.468,6.678-0.468c4.958,0,8.702,1.248,11.235,3.744c2.531,2.495,3.799,6.5,3.799,12.012V185.5z"/>
	<path fill="#ED1C24" d="M554.279,154.144c-3.412,0-6.012,1.145-7.797,3.433c-1.787,2.289-2.679,5.331-2.679,9.126
		c0,2.08,0.252,3.861,0.76,5.343c0.506,1.482,1.199,2.704,2.078,3.666c0.881,0.963,1.88,1.665,3,2.106
		c1.119,0.442,2.318,0.663,3.599,0.663c1.651,0,3.21-0.234,4.677-0.702c1.466-0.469,2.652-1.015,3.56-1.639v-21.138
		c-0.64-0.207-1.52-0.402-2.639-0.585C557.718,154.235,556.198,154.144,554.279,154.144z"/>
</g>
</svg>
