<?xml version="1.0" encoding="utf-8"?>
<!-- Generator: Adobe Illustrator 16.0.0, SVG Export Plug-In . SVG Version: 6.00 Build 0)  -->
<!DOCTYPE svg PUBLIC "-//W3C//DTD SVG 1.1//EN" "http://www.w3.org/Graphics/SVG/1.1/DTD/svg11.dtd">
<svg version="1.1" id="Layer_1" xmlns="http://www.w3.org/2000/svg" xmlns:xlink="http://www.w3.org/1999/xlink" x="0px" y="0px"
	 width="397.334px" height="298.667px" viewBox="0 0 397.334 298.667" enable-background="new 0 0 397.334 298.667"
	 xml:space="preserve">
<g>
	<g opacity="0.5">
		<path fill="#83DBF2" d="M358.918,166.765c-0.026,0.049-0.054,0.098-0.08,0.146c7.354-13.824,20.297-24.299,21.293-40.495
			c0.218-17.542-7.843-35.217-23.44-41.861c-12.764-5.436-24.332-3.241-36.957-6.583c-28.082-7.893-46.129-51.525-80.967-36.52
			c-8.688,4.101-13.574,13.549-23.039,16.301l2.059-0.142C178.646,70.11,54.675,8.492,64.377,92.658
			c1.517,12.515,9.577,30.192,2.77,41.875c-4.933,8.75-13.975,13.877-22.708,17.279c-22.814,9.275-31.309,26.682-25.531,51.527
			c5.9,25.559,21.814,39.035,41.688,44.838C101.475,220.085,244.733,155.244,358.918,166.765z"/>
	</g>
	<g opacity="0.22">
		<path fill="#83DBF2" d="M358.724,167.099c0.039-0.062,0.074-0.124,0.114-0.188C358.798,166.975,358.763,167.037,358.724,167.099
			L358.724,167.099z"/>
	</g>
</g>
<path fill="#FFC64B" d="M18.907,203.339c5.9,25.559,21.814,39.035,41.688,44.838c28.574-19.635,107.169-57.221,190.89-74.139H19.931
	C16.617,182.214,16.271,192,18.907,203.339z"/>
<path opacity="0.5" fill="#CE9B3F" enable-background="new    " d="M60.595,248.177c13.5-9.277,38.172-22.562,69.27-35.781
	c-31.162-0.238-56.329,0.352-68.372,2.327c-22.464,3.687-33.661,2.208-39.196-0.496C29.768,232.835,43.76,243.261,60.595,248.177z"
	/>
<g>
	<path fill="#C48878" d="M64.211,138.779L64.211,138.779"/>
	<path fill="#C48878" d="M358.724,167.099c0.039-0.062,0.074-0.124,0.114-0.188C358.798,166.975,358.763,167.037,358.724,167.099
		L358.724,167.099z"/>
	<path fill="#C48878" d="M358.918,166.765c-0.026,0.049-0.054,0.098-0.08,0.146c7.354-13.824,20.297-24.299,21.293-40.495
		c0.021-1.557-0.03-3.114-0.141-4.666c-0.189,0.174-0.453,0.413-0.793,0.711c-0.019,0.017-0.04,0.035-0.06,0.052
		c-0.097,0.084-0.195,0.17-0.303,0.262c-0.041,0.036-0.085,0.074-0.128,0.11c-0.093,0.08-0.187,0.159-0.286,0.245
		c-0.068,0.059-0.145,0.122-0.218,0.184c-0.084,0.071-0.165,0.14-0.254,0.214c-0.12,0.1-0.248,0.205-0.376,0.311
		c-0.051,0.041-0.096,0.079-0.146,0.12c-0.76,0.623-1.664,1.339-2.705,2.126c-0.013,0.009-0.024,0.019-0.037,0.028
		c-0.25,0.188-0.506,0.38-0.771,0.575c-0.021,0.015-0.04,0.029-0.06,0.044c-0.256,0.188-0.518,0.379-0.787,0.574
		c-0.038,0.028-0.078,0.057-0.117,0.085c-0.258,0.185-0.52,0.373-0.789,0.563c-0.043,0.03-0.086,0.061-0.129,0.091
		c-0.27,0.189-0.543,0.38-0.823,0.573c-0.051,0.035-0.104,0.071-0.155,0.106c-0.277,0.191-0.561,0.383-0.85,0.578
		c-0.057,0.037-0.111,0.074-0.167,0.112c-0.291,0.195-0.588,0.392-0.89,0.59c-0.06,0.038-0.116,0.076-0.176,0.114
		c-0.304,0.199-0.613,0.399-0.93,0.6c-0.062,0.039-0.122,0.078-0.186,0.118c-0.319,0.204-0.646,0.409-0.979,0.615
		c-0.059,0.036-0.115,0.072-0.173,0.108c-0.342,0.211-0.688,0.423-1.043,0.636c-0.054,0.032-0.106,0.064-0.16,0.097
		c-0.368,0.221-0.741,0.443-1.123,0.665c-0.041,0.024-0.08,0.047-0.121,0.071c-0.409,0.239-0.825,0.478-1.249,0.717
		c-0.013,0.007-0.023,0.014-0.035,0.021c-3.11,1.758-6.602,3.532-10.444,5.199c-0.021,0.009-0.044,0.019-0.065,0.028
		c-0.516,0.224-1.037,0.445-1.566,0.664c-0.068,0.028-0.139,0.056-0.207,0.084c-0.484,0.2-0.975,0.398-1.471,0.594
		c-0.098,0.039-0.197,0.077-0.297,0.116c-0.469,0.184-0.941,0.365-1.419,0.545c-0.122,0.045-0.243,0.09-0.366,0.136
		c-0.459,0.171-0.924,0.34-1.392,0.507c-0.14,0.049-0.278,0.098-0.419,0.147c-0.456,0.16-0.915,0.318-1.379,0.474
		c-0.153,0.051-0.309,0.103-0.463,0.153c-0.455,0.151-0.914,0.3-1.379,0.446c-0.162,0.051-0.325,0.103-0.489,0.153
		c-0.461,0.143-0.927,0.284-1.396,0.422c-0.168,0.05-0.338,0.1-0.508,0.149c-0.468,0.136-0.939,0.268-1.415,0.398
		c-0.175,0.048-0.35,0.096-0.524,0.144c-0.479,0.129-0.965,0.254-1.451,0.378c-0.172,0.043-0.344,0.088-0.516,0.131
		c-0.502,0.124-1.006,0.244-1.515,0.361c-0.164,0.038-0.327,0.077-0.491,0.115c-0.529,0.12-1.062,0.234-1.599,0.347
		c-0.147,0.031-0.293,0.063-0.44,0.094c-0.576,0.118-1.158,0.231-1.744,0.341c-0.109,0.021-0.219,0.042-0.328,0.063
		c-0.674,0.124-1.352,0.241-2.035,0.353c-0.023,0.004-0.049,0.008-0.071,0.012c-2.155,0.35-4.364,0.636-6.626,0.85
		c-0.107,0.01-0.219,0.018-0.328,0.028c-0.631,0.058-1.265,0.111-1.904,0.157c-0.196,0.014-0.396,0.024-0.595,0.038
		c-0.554,0.036-1.108,0.071-1.668,0.099c-0.247,0.012-0.497,0.02-0.745,0.03c-0.516,0.021-1.031,0.042-1.552,0.056
		c-0.278,0.007-0.562,0.01-0.841,0.015c-0.493,0.009-0.987,0.016-1.485,0.018c-0.304,0.001-0.608-0.002-0.915-0.004
		c-0.479-0.003-0.959-0.008-1.443-0.018c-0.32-0.006-0.645-0.017-0.967-0.026c-0.474-0.015-0.947-0.031-1.424-0.052
		c-0.335-0.015-0.672-0.033-1.009-0.051c-0.47-0.025-0.942-0.054-1.416-0.087c-0.345-0.023-0.688-0.049-1.036-0.077
		c-0.472-0.037-0.943-0.078-1.419-0.123c-0.353-0.033-0.705-0.067-1.06-0.104c-0.475-0.049-0.95-0.103-1.428-0.159
		c-0.359-0.042-0.72-0.085-1.08-0.132c-0.477-0.061-0.955-0.128-1.435-0.196c-0.366-0.052-0.731-0.104-1.101-0.161
		c-0.48-0.074-0.965-0.155-1.45-0.236c-0.368-0.062-0.735-0.123-1.104-0.188c-0.494-0.088-0.99-0.185-1.486-0.281
		c-0.365-0.071-0.729-0.139-1.096-0.214c-0.511-0.104-1.022-0.218-1.535-0.331c-0.359-0.079-0.717-0.154-1.078-0.238
		c-0.529-0.122-1.063-0.255-1.598-0.387c-0.348-0.085-0.691-0.167-1.039-0.256c-0.596-0.153-1.195-0.318-1.793-0.482
		c-0.289-0.079-0.576-0.153-0.865-0.235c-0.892-0.252-1.787-0.518-2.688-0.797c-59.078-18.333-126.183,24.497-175.562,7.319
		c-1.718-0.598-3.418-1.17-5.108-1.727c-0.521-0.172-1.035-0.335-1.552-0.503c-1.183-0.383-2.361-0.761-3.529-1.126
		c-0.56-0.175-1.116-0.345-1.672-0.516c-1.156-0.354-2.305-0.7-3.444-1.036c-0.491-0.145-0.981-0.29-1.469-0.431
		c-1.315-0.381-2.618-0.75-3.91-1.107c-0.281-0.078-0.565-0.159-0.845-0.236c-5.003-1.371-9.825-2.569-14.426-3.613
		c-0.038-0.009-0.076-0.018-0.115-0.026c-1.536-0.348-3.049-0.68-4.535-0.996c-5.145,6.231-12.561,10.223-19.773,13.033
		c-14.28,5.807-22.948,14.798-26.02,26.805h212.498C273.281,168.324,317.969,162.632,358.918,166.765z"/>
</g>
<g>
	<path fill="#A7715E" d="M373.407,145.187L373.407,145.187"/>
	<path fill="#A7715E" d="M358.724,167.099c0.039-0.062,0.074-0.124,0.114-0.188C358.798,166.975,358.763,167.037,358.724,167.099
		L358.724,167.099z"/>
	<path fill="#A7715E" d="M358.918,166.765c-0.026,0.049-0.054,0.098-0.08,0.146c4.129-7.764,10.021-14.47,14.569-21.726
		c-29.842,1.065-33.496,9.015-39.358,12.153c-0.016,0.009-0.032,0.018-0.048,0.024c-0.104,0.056-0.208,0.108-0.312,0.16
		c-0.026,0.015-0.055,0.026-0.08,0.039c-0.096,0.046-0.189,0.09-0.285,0.133c-0.036,0.017-0.073,0.032-0.11,0.05
		c-0.088,0.037-0.176,0.074-0.265,0.11c-0.043,0.017-0.088,0.034-0.131,0.052c-0.086,0.032-0.17,0.062-0.256,0.094
		c-0.049,0.019-0.098,0.035-0.146,0.051c-0.083,0.029-0.167,0.057-0.252,0.082c-0.053,0.017-0.105,0.033-0.158,0.049
		c-0.084,0.023-0.169,0.047-0.254,0.068c-0.057,0.016-0.111,0.029-0.17,0.045c-0.085,0.021-0.171,0.039-0.258,0.059
		c-0.061,0.014-0.118,0.025-0.18,0.037c-0.086,0.018-0.175,0.033-0.264,0.048c-0.062,0.011-0.126,0.022-0.189,0.032
		c-0.09,0.014-0.182,0.025-0.272,0.037c-0.063,0.009-0.129,0.018-0.194,0.023c-0.097,0.012-0.195,0.02-0.293,0.027
		c-0.064,0.006-0.13,0.014-0.197,0.018c-0.102,0.008-0.205,0.012-0.311,0.016c-0.066,0.004-0.131,0.009-0.197,0.011
		c-0.117,0.003-0.238,0.004-0.357,0.005c-0.059,0-0.114,0.002-0.174,0.001c-0.182-0.001-0.365-0.005-0.555-0.013
		c-12.408-0.518-21.789-13.713-48.123-13.532c-26.33,0.18-59.018,23.731-72.033,23.427c-13.017-0.302-19.674-6.658-45.399-5.75
		c-25.728,0.909-43.886-0.605-60.231-13.923c-16.343-13.319-21.781-7.041-30.567,1.21c-7.416,6.963-10.327,0.908-10.327,0.908
		s-0.001-0.053-0.003-0.129c-0.001-0.042-0.002-0.096-0.004-0.158c-0.024-0.924-0.107-4.096-0.227-8.711
		c-4.824,4.472-10.873,7.57-16.784,9.873c-19.605,7.971-28.625,21.952-27.111,41.493h162.888
		C235.866,174.671,301.114,160.932,358.918,166.765z"/>
</g>
<g>
	<path fill="#865141" d="M23.202,167.871c-4.688,7-6.645,15.498-5.875,25.436h162.888c7.421-2.484,15.007-4.885,22.729-7.159
		c0.002,0.001,0.006,0.002,0.009,0.003c-10.328-3.891-8.611-10.763-20.921-7.365c-15.354,4.238-17.484,9.457-20.662,8.248
		c-3.177-1.211-1.93-17.101-2.27-19.296c-0.341-2.192-0.831-2.308-4.994-1.929c-4.161,0.377,2.496,21.3-5.986,20.393
		c-8.484-0.908-29.878-10.443-53.485-2.726c-23.609,7.72-36.773,5.901-48.577-3.632"/>
</g>
<path fill="#865141" d="M109.295,169.509c0.011-0.008,0.02-0.016,0.03-0.023c0,0-0.012,0.004-0.03,0.014
	c-0.087-0.699-0.274-1.35-0.559-1.795c0.117-0.076,0.251-0.17,0.361-0.258c0,0-0.197,0.074-0.394,0.207
	c-0.05-0.07-0.101-0.139-0.156-0.197c0.025-0.115,0.047-0.237,0.061-0.35c0,0-0.059,0.125-0.107,0.301
	c-0.045-0.047-0.092-0.084-0.143-0.121c-0.025-0.064-0.035-0.023-0.035-0.023l0,0c-0.162-0.107-0.342-0.16-0.541-0.146
	c-0.265,0.02-0.464,0.106-0.616,0.242c-0.004,0.006-0.008,0.01-0.008,0.01c-0.824,0.76-0.172,3.027-0.596,4.104
	c-0.034,0.083-0.077,0.159-0.125,0.226c-0.027-0.035-0.055-0.068-0.083-0.101c0,0,0.021,0.051,0.061,0.129
	c-0.222,0.285-0.57,0.407-0.946,0.444c0.014-0.071,0.026-0.144,0.034-0.211c0,0-0.042,0.086-0.083,0.215
	c-0.152,0.015-0.311,0.013-0.464,0c-0.024-0.03-0.049-0.062-0.075-0.09c0,0,0.016,0.033,0.042,0.088
	c-0.099-0.006-0.193-0.02-0.287-0.032c0.231-1.956,0.494-3.659,0.673-4.793c0.002,0,0.004-0.002,0.005-0.005
	c0,0-0.001,0-0.005,0.003c0.035-0.224,0.067-0.423,0.097-0.601c0.006-0.047,0.012-0.088,0.016-0.133
	c0.002-0.016,0.004-0.031,0.004-0.045c0.003-0.029,0.006-0.061,0.008-0.087c0-0.019,0-0.034,0.002-0.052
	c0-0.027,0.002-0.053,0.002-0.079c0-0.019-0.002-0.035-0.002-0.054c0-0.025-0.002-0.049-0.002-0.074
	c-0.002-0.018-0.004-0.035-0.004-0.053c-0.002-0.024-0.003-0.049-0.007-0.071c0-0.019-0.004-0.035-0.006-0.054
	c-0.002-0.023-0.005-0.047-0.01-0.068c-0.002-0.02-0.006-0.037-0.01-0.055c-0.002-0.01-0.002-0.021-0.006-0.031
	c0.103-0.066,0.211-0.145,0.302-0.219c0,0-0.148,0.057-0.313,0.156c-0.002-0.008-0.006-0.015-0.008-0.023
	c-0.005-0.021-0.012-0.047-0.018-0.068c-0.004-0.015-0.008-0.031-0.014-0.046c-0.006-0.024-0.014-0.049-0.022-0.071
	c-0.006-0.015-0.01-0.027-0.016-0.043c-0.007-0.023-0.017-0.051-0.029-0.076c-0.004-0.012-0.009-0.021-0.013-0.033
	c-0.017-0.041-0.037-0.084-0.059-0.125c0.002-0.004,0.002-0.006,0.002-0.01c0,0,0,0.002-0.002,0.006c0,0-0.002-0.002-0.002-0.004
	l0,0l-0.008-0.014c-0.01-0.021-0.021-0.044-0.033-0.064c-0.006-0.01-0.012-0.018-0.016-0.027c-0.002-0.002-0.004-0.004-0.004-0.006
	l-0.009-0.02l0,0c-0.01-0.015-0.021-0.031-0.03-0.049c-0.007-0.01-0.014-0.021-0.021-0.033c-0.014-0.021-0.027-0.041-0.041-0.062
	c-0.009-0.012-0.018-0.023-0.026-0.034c-0.014-0.021-0.028-0.04-0.043-0.06c-0.008-0.01-0.017-0.022-0.028-0.036
	c-0.014-0.017-0.029-0.036-0.045-0.056c-0.008-0.008-0.018-0.021-0.027-0.031c-0.016-0.02-0.034-0.037-0.05-0.053
	c-0.01-0.013-0.02-0.022-0.03-0.033c-0.017-0.018-0.036-0.034-0.051-0.053c-0.01-0.01-0.019-0.019-0.032-0.027
	c-0.017-0.018-0.037-0.034-0.055-0.053c-0.01-0.008-0.02-0.017-0.029-0.025c-0.022-0.018-0.043-0.034-0.065-0.051
	c-0.008-0.01-0.016-0.014-0.023-0.021c-0.028-0.021-0.053-0.041-0.081-0.062c-0.004-0.002-0.008-0.008-0.012-0.008
	c-0.063-0.045-0.13-0.088-0.197-0.129c-0.002,0-0.002,0-0.002,0c0.037-0.026,0.074-0.058,0.11-0.084c0,0-0.059,0.021-0.146,0.064
	c-0.021-0.012-0.043-0.023-0.065-0.034c-0.008-0.004-0.016-0.008-0.022-0.012c-0.028-0.015-0.055-0.027-0.083-0.04
	c-0.007-0.005-0.017-0.01-0.027-0.014c-0.026-0.012-0.052-0.021-0.079-0.033c-0.007-0.004-0.018-0.01-0.028-0.01c0,0,0,0,0-0.004
	v0.004c-0.002-0.004-0.002-0.004-0.004-0.004c-0.023-0.01-0.047-0.019-0.071-0.026c0.014-0.079,0.028-0.157,0.036-0.234
	c0,0-0.041,0.091-0.083,0.22c-0.022-0.008-0.046-0.017-0.069-0.021c-0.012-0.004-0.022-0.008-0.034-0.012
	c-0.027-0.008-0.053-0.014-0.081-0.021c-0.009-0.003-0.021-0.004-0.032-0.009c-0.028-0.005-0.057-0.011-0.085-0.019
	c-0.01,0-0.02-0.004-0.029-0.004c-0.03-0.006-0.062-0.014-0.093-0.017c-0.008-0.003-0.014-0.004-0.022-0.004
	c-0.415-0.062-0.847-0.019-1.256,0.151v-0.004v0.004c-0.04,0.016-0.079,0.033-0.118,0.053c0.032-0.139,0.063-0.297,0.079-0.439
	c0,0-0.101,0.219-0.146,0.471c-0.051,0.028-0.103,0.06-0.154,0.09c-0.087-0.131-0.205-0.301-0.32-0.438c0,0,0.101,0.251,0.274,0.467
	c-0.511,0.334-0.951,0.896-1.224,1.739c-0.405,1.257-0.438,3.796-0.31,6.562c-0.005-0.006-0.014-0.016-0.019-0.022
	c0,0,0.005,0.019,0.019,0.048c0.004,0.053,0.006,0.107,0.009,0.159c-0.524,0.013-1.357-0.051-1.413-0.56
	c0-0.012-0.002-0.022-0.002-0.035c0-0.004,0-0.01-0.002-0.014c0-0.009,0-0.017,0-0.023c0-0.006,0-0.014-0.002-0.016
	c0-0.012,0-0.019,0-0.025c0-0.006,0-0.014,0-0.018c0-0.01,0-0.017,0-0.024c0-0.007,0-0.013,0-0.019c0-0.01,0-0.02,0-0.027
	c0-0.006,0-0.01,0-0.018c0-0.01,0-0.02,0-0.029c0-0.006,0.002-0.012,0.002-0.019c0-0.01,0-0.021,0-0.03c0-0.006,0-0.012,0.002-0.019
	c0-0.011,0-0.021,0-0.034c0-0.006,0.002-0.013,0.002-0.015c0-0.013,0-0.025,0.002-0.039c0-0.002,0-0.009,0-0.015
	c0-0.014,0.002-0.027,0.002-0.041c0-0.004,0-0.008,0-0.012c0.058-0.904,0.256-2.438-0.646-2.742H98.11
	c-0.016-0.006-0.035-0.012-0.053-0.018c0,0,0,0-0.002,0c-0.018-0.004-0.037-0.01-0.056-0.014c-0.002,0-0.002,0-0.002,0
	c-0.059-0.014-0.122-0.021-0.191-0.022c0.138-0.087,0.345-0.221,0.505-0.349c0,0-0.337,0.128-0.571,0.347
	c-0.02,0.002-0.04,0.002-0.059,0.003c0.037-0.143,0.11-0.441,0.14-0.689c0,0-0.168,0.358-0.166,0.692
	c-0.014,0.001-0.03,0.005-0.046,0.007c-0.077-0.125-0.249-0.387-0.409-0.576c0,0,0.142,0.354,0.379,0.58
	c-1.443,0.258-2.254,3.619-0.977,4.987c1.007,1.079,2.841,0.798,3.667,0.599c0.022,0.324,0.045,0.649,0.069,0.971
	c-0.01-0.014-0.021-0.027-0.033-0.041c0,0,0.012,0.033,0.037,0.086c0.076,0.971,0.161,1.924,0.247,2.816
	c-0.02-0.023-0.04-0.047-0.058-0.069c0,0,0.022,0.056,0.064,0.138c0.097,0.984,0.193,1.895,0.28,2.672
	c-0.004-0.009-0.009-0.015-0.016-0.021c0,0,0.007,0.017,0.021,0.044c0.092,0.821,0.173,1.489,0.229,1.929
	c-0.007-0.01-0.014-0.018-0.021-0.023c0,0,0.009,0.021,0.025,0.056c0.046,0.354,0.071,0.553,0.071,0.553
	c0.126,0.074,0.251,0.14,0.369,0.196l0,0l0,0c0.048,0.023,0.095,0.044,0.14,0.064h0.002l0,0c0.405,0.176,0.764,0.264,1.078,0.291
	l0,0c0,0,0.111,0.01,0.136,0.01v-0.002c0.108,0.004,0.209,0,0.304-0.01l0,0h0.002c0.075-0.007,0.146-0.019,0.213-0.029
	c0.002,0,0.002,0,0.002-0.002c0.182-0.037,0.337-0.09,0.467-0.15l0,0l0.127-0.059c0,0,0-0.002,0-0.008
	c0.16-0.091,0.269-0.183,0.328-0.242c0.001,0,0.001,0,0.001,0c0.006-0.006,0.01-0.01,0.014-0.014c0,0,0,0,0-0.002
	c0.014-0.012,0.024-0.023,0.032-0.031l0,0c0.002-0.004,0.004-0.004,0.006-0.006l0,0c0.002-0.002,0.002-0.002,0.003-0.005l0,0v-0.003
	c-0.025-0.16-0.049-0.324-0.07-0.492c0.061-0.041,0.118-0.084,0.173-0.129c0,0-0.077,0.027-0.179,0.081
	c-0.073-0.563-0.123-1.157-0.156-1.772c0.093-0.062,0.188-0.131,0.269-0.198c0,0-0.123,0.049-0.271,0.134
	c-0.045-0.881-0.051-1.799-0.031-2.732c0.029-0.022,0.059-0.045,0.088-0.067c0,0-0.033,0.013-0.088,0.038
	c0.039-1.704,0.171-3.451,0.339-5.086c1.098,0.084,3.09,0.123,4.043-0.539C109.227,172.484,109.465,170.906,109.295,169.509z"/>
<path fill="#865141" d="M45.738,163.203c0.009-0.011,0.02-0.018,0.027-0.023c0,0-0.01,0.004-0.03,0.011
	c-0.085-0.698-0.274-1.351-0.559-1.795c0.119-0.077,0.25-0.167,0.361-0.257c0,0-0.196,0.072-0.393,0.207
	c-0.049-0.073-0.1-0.139-0.155-0.199c0.023-0.113,0.045-0.234,0.059-0.35c0,0-0.059,0.129-0.106,0.301
	c-0.045-0.043-0.093-0.084-0.14-0.121c-0.028-0.064-0.036-0.023-0.036-0.023l0,0c-0.162-0.104-0.344-0.16-0.541-0.146
	c-0.265,0.021-0.466,0.108-0.616,0.241c-0.006,0.006-0.008,0.01-0.008,0.01c-0.825,0.76-0.172,3.027-0.599,4.104
	c-0.033,0.086-0.075,0.16-0.124,0.228c-0.028-0.034-0.055-0.07-0.083-0.103c0,0,0.021,0.055,0.063,0.131
	c-0.221,0.283-0.57,0.408-0.946,0.442c0.012-0.069,0.024-0.142,0.032-0.211c0,0-0.042,0.089-0.081,0.218
	c-0.154,0.014-0.312,0.01-0.464,0c-0.025-0.033-0.051-0.062-0.075-0.094c0,0,0.014,0.034,0.04,0.089
	c-0.098-0.007-0.194-0.017-0.287-0.03c0.23-1.957,0.494-3.66,0.674-4.791c0.002-0.004,0.003-0.006,0.005-0.006
	c0,0-0.002,0-0.003,0.002c0.035-0.223,0.067-0.425,0.095-0.6c0.007-0.046,0.014-0.091,0.018-0.135
	c0.001-0.016,0.001-0.029,0.003-0.045c0.002-0.028,0.004-0.059,0.006-0.088c0.002-0.018,0.002-0.033,0.002-0.051
	c0-0.025,0.002-0.054,0.002-0.08c0-0.018,0-0.035-0.002-0.053c0-0.027,0-0.051-0.002-0.072c0-0.02-0.002-0.037-0.004-0.057
	c-0.002-0.023-0.004-0.047-0.005-0.07c-0.002-0.019-0.004-0.035-0.006-0.054c-0.004-0.022-0.008-0.045-0.012-0.069
	c-0.002-0.018-0.006-0.033-0.008-0.051c-0.001-0.013-0.003-0.021-0.005-0.031c0.101-0.068,0.209-0.145,0.302-0.221
	c0,0-0.148,0.057-0.316,0.159c-0.002-0.011-0.004-0.019-0.006-0.024c-0.005-0.024-0.012-0.049-0.017-0.07
	c-0.006-0.016-0.011-0.032-0.014-0.047c-0.008-0.023-0.016-0.047-0.024-0.068c-0.004-0.018-0.009-0.031-0.014-0.045
	c-0.01-0.023-0.02-0.051-0.03-0.076c-0.003-0.01-0.007-0.021-0.014-0.031c-0.018-0.045-0.038-0.086-0.058-0.127c0,0,0-0.006,0-0.008
	c0,0,0,0.002-0.002,0.008c0-0.004,0-0.006-0.001-0.006l0,0l-0.006-0.014c-0.012-0.021-0.023-0.043-0.035-0.064
	c-0.004-0.01-0.01-0.021-0.016-0.031c-0.002,0-0.002-0.002-0.004-0.006l-0.007-0.015H41.57c-0.01-0.019-0.019-0.034-0.028-0.049
	c-0.008-0.015-0.016-0.024-0.024-0.034c-0.014-0.021-0.026-0.044-0.042-0.062c-0.008-0.014-0.015-0.023-0.026-0.037
	c-0.014-0.019-0.027-0.037-0.042-0.059c-0.01-0.012-0.019-0.023-0.027-0.033c-0.016-0.02-0.03-0.037-0.046-0.056
	c-0.009-0.013-0.02-0.022-0.029-0.036c-0.016-0.018-0.032-0.033-0.048-0.051c-0.012-0.012-0.021-0.021-0.031-0.031
	c-0.017-0.019-0.034-0.035-0.052-0.053c-0.01-0.01-0.02-0.021-0.029-0.027c-0.021-0.019-0.038-0.037-0.057-0.055
	c-0.01-0.008-0.02-0.016-0.03-0.023c-0.019-0.019-0.042-0.035-0.062-0.054c-0.01-0.006-0.018-0.014-0.026-0.021
	c-0.025-0.018-0.053-0.039-0.08-0.061c-0.003-0.003-0.007-0.005-0.012-0.009c-0.064-0.045-0.132-0.087-0.199-0.125l0,0
	c0.04-0.03,0.076-0.06,0.112-0.087c0,0-0.061,0.021-0.148,0.064c-0.021-0.014-0.043-0.022-0.062-0.033
	c-0.008-0.004-0.016-0.01-0.024-0.014c-0.027-0.014-0.053-0.025-0.081-0.039c-0.01-0.004-0.019-0.006-0.029-0.012
	c-0.026-0.013-0.051-0.023-0.077-0.035c-0.01-0.002-0.02-0.007-0.029-0.011l0,0l0,0l-0.002-0.003
	c-0.024-0.008-0.049-0.016-0.073-0.027c0.016-0.078,0.028-0.156,0.038-0.232c0,0-0.042,0.09-0.083,0.219
	c-0.024-0.01-0.048-0.016-0.071-0.021c-0.01-0.006-0.022-0.006-0.034-0.011c-0.026-0.009-0.053-0.016-0.079-0.022
	c-0.012,0-0.021-0.004-0.034-0.006c-0.027-0.008-0.057-0.015-0.084-0.021c-0.01-0.001-0.019-0.002-0.028-0.005
	c-0.032-0.007-0.063-0.013-0.095-0.017c-0.008-0.002-0.014-0.002-0.02-0.004c-0.415-0.06-0.849-0.018-1.256,0.151l0,0l0,0
	c-0.042,0.017-0.081,0.033-0.118,0.054c0.03-0.14,0.061-0.299,0.079-0.439c0,0-0.102,0.218-0.146,0.472
	c-0.053,0.026-0.103,0.058-0.154,0.091c-0.089-0.135-0.207-0.304-0.322-0.439c0,0,0.101,0.252,0.274,0.467
	c-0.509,0.332-0.952,0.896-1.224,1.738c-0.402,1.257-0.436,3.795-0.31,6.562c-0.005-0.008-0.012-0.018-0.02-0.025
	c0,0,0.007,0.02,0.021,0.049c0.002,0.054,0.004,0.107,0.007,0.16c-0.525,0.013-1.358-0.053-1.411-0.56
	c-0.002-0.011-0.002-0.022-0.004-0.036c0-0.003,0-0.007,0-0.011c0-0.009-0.002-0.019-0.002-0.026c0-0.004,0-0.01,0-0.015
	c0-0.009,0-0.017-0.002-0.022c0-0.008,0-0.015,0-0.02c0-0.009,0-0.018,0-0.025c0-0.006,0-0.012,0-0.019s0-0.019,0-0.026
	c0-0.007,0-0.012,0-0.02c0.002-0.01,0.002-0.02,0.002-0.027c0-0.007,0-0.014,0-0.02c0-0.01,0-0.02,0-0.028
	c0.002-0.007,0.002-0.015,0.002-0.021c0-0.01,0-0.021,0.002-0.03c0-0.007,0-0.013,0-0.019c0-0.013,0.002-0.022,0.002-0.037
	c0-0.004,0-0.012,0-0.016c0.001-0.014,0.001-0.027,0.003-0.041c0-0.003,0-0.006,0-0.01c0.055-0.907,0.255-2.438-0.647-2.744l0,0
	c-0.018-0.007-0.036-0.014-0.055-0.018l0,0c-0.021-0.006-0.038-0.01-0.057-0.014l0,0c-0.06-0.014-0.125-0.021-0.191-0.023
	c0.138-0.084,0.345-0.219,0.504-0.35c0,0-0.338,0.129-0.57,0.35c-0.019,0-0.04,0-0.059,0.004c0.035-0.143,0.11-0.445,0.138-0.692
	c0,0-0.167,0.358-0.165,0.693c-0.016,0.002-0.03,0.004-0.044,0.006c-0.079-0.124-0.25-0.383-0.411-0.575
	c0,0,0.142,0.354,0.379,0.582c-1.444,0.256-2.253,3.617-0.978,4.984c1.009,1.082,2.841,0.8,3.667,0.602
	c0.022,0.322,0.045,0.646,0.071,0.971c-0.012-0.016-0.023-0.028-0.035-0.043c0,0,0.014,0.033,0.04,0.084
	c0.072,0.973,0.157,1.928,0.244,2.82c-0.019-0.023-0.037-0.048-0.057-0.068c0,0,0.022,0.054,0.063,0.133
	c0.097,0.988,0.195,1.898,0.282,2.673c-0.005-0.009-0.012-0.015-0.017-0.019c0,0,0.007,0.014,0.019,0.043
	c0.093,0.821,0.176,1.487,0.231,1.928c-0.008-0.008-0.016-0.018-0.022-0.025c0,0,0.008,0.023,0.026,0.059
	c0.042,0.355,0.07,0.555,0.07,0.555c0.126,0.074,0.25,0.137,0.368,0.193l0,0h0.002c0.048,0.021,0.093,0.043,0.14,0.063l0,0l0,0
	c0.407,0.177,0.766,0.263,1.079,0.291l0,0c0,0,0.11,0.01,0.138,0.01c0,0,0,0,0-0.001c0.106,0.004,0.207,0,0.304-0.009l0,0l0,0
	c0.075-0.007,0.146-0.019,0.215-0.032c0,0,0,0,0.002,0c0.182-0.033,0.336-0.09,0.466-0.15l0,0l0.128-0.061
	c0,0-0.002-0.002-0.002-0.006c0.16-0.091,0.269-0.184,0.33-0.238c0-0.005,0-0.005,0.002-0.005c0.004-0.004,0.009-0.01,0.012-0.014
	c0.002,0,0.002,0,0.002,0c0.014-0.015,0.023-0.022,0.03-0.031l0.002-0.002c0.002-0.001,0.002-0.004,0.004-0.004
	c0-0.001,0-0.001,0-0.001c0.001,0,0.003-0.003,0.003-0.003c0-0.003,0-0.003,0-0.003h0.002c-0.025-0.16-0.049-0.326-0.071-0.491
	c0.06-0.045,0.119-0.088,0.172-0.132c0,0-0.076,0.027-0.18,0.08c-0.071-0.563-0.123-1.157-0.154-1.772
	c0.09-0.062,0.186-0.13,0.268-0.196c0,0-0.125,0.047-0.273,0.133c-0.043-0.879-0.051-1.801-0.031-2.73
	c0.031-0.025,0.061-0.046,0.089-0.068c0,0-0.034,0.015-0.087,0.037c0.04-1.705,0.172-3.449,0.34-5.082
	c1.095,0.08,3.09,0.123,4.042-0.543C45.667,166.173,45.906,164.595,45.738,163.203z"/>
<path fill="#FFD473" d="M358.724,167.099c0.039-0.062,0.074-0.124,0.114-0.188c0.026-0.05,0.054-0.099,0.08-0.146
	c-114.185-11.521-257.443,53.32-298.323,81.412h0.001l0,0c32.182,9.396,74.753-1.348,102.056-13.619
	c31.408-14.771,68.451-17.309,100.973-4.812c25.479,10.174,41.362,31.521,71.267,25.267c26.521-5.322,30.522-30.359,22.778-53.669
	C353.291,186.99,350.146,180.882,358.724,167.099L358.724,167.099z"/>
<g id="BACKGROUND">
</g>
<g>
	<g>
		<path fill="#A2DBF1" d="M176.731,270.582c0,5.612-2.71,8.662-7.647,8.662s-7.647-3.05-7.647-8.662c0-5.615,2.71-8.615,7.647-8.615
			C174.021,261.964,176.731,264.964,176.731,270.582z M164.679,270.582c0,3.896,1.524,5.978,4.429,5.978
			c2.88,0,4.404-2.08,4.404-5.978c0-3.873-1.524-5.931-4.404-5.931C166.204,264.651,164.679,266.708,164.679,270.582z"/>
		<path fill="#A2DBF1" d="M189.516,273.108c0,3.942-1.904,6.086-5.371,6.086c-3.468,0-5.372-2.144-5.372-6.086
			s1.904-6.051,5.372-6.051C187.612,267.057,189.516,269.166,189.516,273.108z M181.051,273.108c0,2.735,1.071,4.199,3.11,4.199
			c2.023,0,3.094-1.464,3.094-4.199c0-2.721-1.071-4.164-3.094-4.164C182.122,268.944,181.051,270.387,181.051,273.108z"/>
		<path fill="#A2DBF1" d="M201.942,273.108c0,3.942-1.903,6.086-5.373,6.086c-3.468,0-5.372-2.144-5.372-6.086
			s1.904-6.051,5.372-6.051C200.039,267.057,201.942,269.166,201.942,273.108z M193.478,273.108c0,2.735,1.071,4.199,3.11,4.199
			c2.023,0,3.093-1.464,3.093-4.199c0-2.721-1.07-4.164-3.093-4.164C194.549,268.944,193.478,270.387,193.478,273.108z"/>
		<path fill="#A2DBF1" d="M212.16,270.762c0,3.213-2.873,3.637-3.772,3.637h-2.106v4.231c0,0.308-0.272,0.478-0.902,0.478h-0.405
			c-0.631,0-0.902-0.17-0.902-0.478v-10.844c0-0.427,0.188-0.611,0.613-0.611h3.535C209.713,267.175,212.16,267.619,212.16,270.762z
			 M206.278,269.063v3.435h1.921c0.663,0,1.7-0.289,1.7-1.733c0-1.396-1.004-1.699-1.785-1.699L206.278,269.063L206.278,269.063z"/>
		<path fill="#A2DBF1" d="M220.049,268.178c0,0.391-0.459,1.274-0.782,1.274c-0.238,0-0.8-0.511-2.021-0.511
			c-1.312,0-1.804,0.61-1.804,1.31c0,1.054,0.937,1.377,2.007,1.801c1.428,0.578,3.128,1.259,3.128,3.57
			c0,2.517-1.803,3.569-3.809,3.569c-2.362,0-3.824-0.866-3.824-1.396c0-0.44,0.595-1.309,0.884-1.309
			c0.271,0,1.155,0.815,2.651,0.815c0.937,0,1.836-0.427,1.836-1.479c0-1.14-1.31-1.494-2.603-2.058
			c-1.274-0.562-2.532-1.272-2.532-3.384c0-2.228,1.836-3.33,3.928-3.33C218.604,267.057,220.049,267.6,220.049,268.178z"/>
		<path fill="#A2DBF1" d="M223.789,277.221v1.409c0,0.308-0.272,0.478-0.901,0.478h-0.441c-0.629,0-0.899-0.17-0.899-0.478v-1.409
			c0-0.308,0.271-0.478,0.899-0.478h0.441C223.517,276.746,223.789,276.916,223.789,277.221z"/>
		<path fill="#A2DBF1" d="M227.153,277.221v1.409c0,0.308-0.271,0.478-0.899,0.478h-0.44c-0.629,0-0.9-0.17-0.9-0.478v-1.409
			c0-0.308,0.271-0.478,0.9-0.478h0.44C226.883,276.746,227.153,276.916,227.153,277.221z"/>
		<path fill="#A2DBF1" d="M230.521,277.221v1.409c0,0.308-0.271,0.478-0.899,0.478h-0.44c-0.631,0-0.9-0.17-0.9-0.478v-1.409
			c0-0.308,0.271-0.478,0.9-0.478h0.44C230.249,276.746,230.521,276.916,230.521,277.221z"/>
	</g>
</g>
<g>
	<ellipse opacity="0.2" fill="#3F1B06" enable-background="new    " cx="297.828" cy="177.074" rx="6.112" ry="2.941"/>
	<g>
		<ellipse fill="#867A73" cx="297.118" cy="175.792" rx="6.111" ry="3.377"/>
		
			<ellipse transform="matrix(-0.2651 -0.9642 0.9642 -0.2651 205.3859 503.4965)" fill="#AC9F9A" cx="294.578" cy="173.475" rx="0.321" ry="2.633"/>
		<path opacity="0.2" fill="#3F1B06" enable-background="new    " d="M301.55,173.472c0.061,0.189,0.098,0.387,0.098,0.588
			c0,1.865-2.736,3.377-6.11,3.377c-1.747,0-3.315-0.406-4.433-1.057c0.504,1.586,3.002,2.789,6.015,2.789
			c3.375,0,6.11-1.514,6.11-3.377C303.229,174.892,302.588,174.076,301.55,173.472z"/>
	</g>
</g>
<g>
	<ellipse opacity="0.2" fill="#3F1B06" enable-background="new    " cx="128.671" cy="224.649" rx="8.798" ry="4.235"/>
	<g>
		<ellipse fill="#867A73" cx="127.65" cy="222.806" rx="8.798" ry="4.86"/>
		
			<ellipse transform="matrix(-0.2646 -0.9644 0.9644 -0.2646 -54.8441 397.1141)" fill="#AC9F9A" cx="123.995" cy="219.469" rx="0.462" ry="3.79"/>
		<path opacity="0.2" fill="#3F1B06" enable-background="new    " d="M134.028,219.462c0.088,0.277,0.142,0.56,0.142,0.848
			c0,2.688-3.939,4.861-8.798,4.861c-2.514,0-4.775-0.586-6.378-1.52c0.726,2.282,4.321,4.014,8.656,4.014
			c4.858,0,8.798-2.174,8.798-4.859C136.448,221.509,135.524,220.335,134.028,219.462z"/>
	</g>
</g>
<g>
	<ellipse opacity="0.2" fill="#3F1B06" enable-background="new    " cx="291.909" cy="180.482" rx="3.33" ry="1.604"/>
	<g>
		<ellipse fill="#867A73" cx="291.522" cy="179.786" rx="3.33" ry="1.841"/>
		
			<ellipse transform="matrix(-0.2645 -0.9644 0.9644 -0.2645 194.7173 505.5565)" fill="#AC9F9A" cx="290.14" cy="178.528" rx="0.177" ry="1.433"/>
		<path opacity="0.2" fill="#3F1B06" enable-background="new    " d="M293.937,178.521c0.033,0.105,0.056,0.21,0.056,0.318
			c0,1.019-1.492,1.842-3.33,1.842c-0.952,0-1.808-0.221-2.414-0.574c0.274,0.861,1.635,1.52,3.274,1.52
			c1.84,0,3.33-0.822,3.33-1.84C294.853,179.294,294.503,178.85,293.937,178.521z"/>
	</g>
</g>
<g>
	<path opacity="0.2" fill="#3F1B06" enable-background="new    " d="M261.347,215.317c-2.168-8.435-39.682-26.714-39.682-26.714
		l-69.95,22.516c0,0,4.435,7.734,15.871,7.952c6.242,0.119,14.223,3.121,23.394,5.837c18.888-4.182,38.619-4.296,57.425,0.149
		C256.724,222.642,262.369,219.298,261.347,215.317z"/>
</g>
<path opacity="0.2" fill="#3F1B06" enable-background="new    " d="M302.806,251.113c9.385,4.262,19.49,6.532,32.086,3.898
	c17.994-3.611,25.612-16.303,26.238-31.366c0.055,0.01-0.051-0.009,0,0c-8.166-1.521-70.361-14.074-86.495-46.065h-26.522"/>
<g>
	<ellipse opacity="0.2" fill="#3F1B06" enable-background="new    " cx="240.733" cy="181.638" rx="6.111" ry="2.945"/>
	<g>
		<ellipse fill="#867A73" cx="240.022" cy="180.358" rx="6.112" ry="3.378"/>
		
			<ellipse transform="matrix(-0.2639 -0.9646 0.9646 -0.2639 128.4395 454.0742)" fill="#AC9F9A" cx="237.486" cy="178.027" rx="0.322" ry="2.634"/>
		<path opacity="0.2" fill="#3F1B06" enable-background="new    " d="M244.453,178.037c0.062,0.192,0.101,0.387,0.101,0.59
			c0,1.863-2.736,3.377-6.111,3.377c-1.746,0-3.317-0.405-4.433-1.057c0.505,1.584,3.003,2.789,6.015,2.789
			c3.375,0,6.111-1.511,6.111-3.378C246.136,179.458,245.494,178.644,244.453,178.037z"/>
	</g>
</g>
<g>
	<path fill="#FFECC6" d="M55.066,248.548c-0.087,0.06-0.134,0.091-0.134,0.091S54.98,248.607,55.066,248.548z"/>
	<path fill="#FFECC6" d="M358.838,166.912c0.733-1.379,1.524-2.724,2.353-4.045C220.124,141.111,66.365,241.052,55.546,248.23
		c0.387-0.257,0.952-0.629,1.693-1.109c1.104,0.379,2.227,0.728,3.357,1.057c-0.223,0.154-0.461,0.312-0.678,0.463
		c40.538-28.229,188.272-95.318,303.828-81.346c-1.658-0.199-3.345-0.142-5.022-0.194
		C358.763,167.037,358.798,166.975,358.838,166.912z"/>
	<path fill="#FFECC6" d="M55.482,248.272c-0.063,0.042-0.12,0.079-0.172,0.114C55.362,248.351,55.419,248.314,55.482,248.272z"/>
	<path fill="#FFECC6" d="M55.232,248.438c-0.045,0.03-0.083,0.056-0.118,0.079C55.149,248.494,55.188,248.468,55.232,248.438z"/>
</g>
<g>
	<path fill="#4BA442" d="M243.199,87.894c0,0-14.407,1.733-15.062-4.381c-0.654-6.114,4.545-26.852-8.205-26.852
		s-20.391,29.417-9.478,41.122c10.916,11.705,33.618,3.956,33.618,3.956L243.199,87.894z"/>
	<path fill="#4BA442" d="M268.959,80.457c0,0,19.208,6.763,23.356-3.714c4.146-10.477-4.148-34.708,10.041-35.799
		c14.188-1.092,17.246,40.367,6.113,48.125c-11.135,7.758-39.512,3.823-39.512,3.823L268.959,80.457L268.959,80.457z"/>
	<path fill="#4BA442" d="M268.959,80.457c0,0,19.208,6.763,23.356-3.714c4.146-10.477-4.148-34.708,10.041-35.799
		c14.188-1.092,17.246,40.367,6.113,48.125c-11.135,7.758-39.512,3.823-39.512,3.823L268.959,80.457L268.959,80.457z"/>
	<path opacity="0.2" fill="#3F1B06" enable-background="new    " d="M268.959,80.457c0,0,19.208,6.763,23.356-3.714
		c4.146-10.477-4.148-34.708,10.041-35.799c14.188-1.092,17.246,40.367,6.113,48.125c-11.135,7.758-39.512,3.823-39.512,3.823
		L268.959,80.457L268.959,80.457z"/>
	<path opacity="0.2" fill="#3F1B06" enable-background="new    " d="M243.199,87.894c0,0-14.407,1.733-15.062-4.381
		c-0.628-5.861,4.122-25.155-6.713-26.745c1.61,2.486,2.301,6.358-0.054,12.335c-5.677,14.408-3.058,25.541,20.519,22.484
		c0.535-0.069,1.039-0.16,1.526-0.26L243.199,87.894z"/>
	<path fill="#4BA442" d="M248.11,177.58c0,0-15.391-115.451-5.894-144.919c9.495-29.47,44.203-17.354,40.603,5.239
		c-3.602,22.593-15.389,94.358-8.186,139.681C274.635,177.58,266.12,187.919,248.11,177.58z"/>
	<path opacity="0.2" fill="#3F1B06" enable-background="new    " d="M264.825,15.33c5.295,2.766,9.877,10.235,5.225,29.543
		c-8.195,34.015-12.354,118.97-5.249,137.216c6.63-0.623,9.834-4.51,9.834-4.51c-7.204-45.324,4.585-117.088,8.185-139.682
		C284.785,25.573,275.351,16.368,264.825,15.33z"/>
	<path fill="#3A6D33" d="M251.144,179.169c0,0-11.002-79.942-7.728-114.651c3.276-34.708,12.036-47.831,12.036-47.831
		s-11.747,23.999-11.379,61.802c0.367,37.803,8.234,101.211,8.234,101.211L251.144,179.169z"/>
	<path fill="#3A6D33" d="M270.424,16.688c0,0-12.38,32.603-12.161,79.182c0.219,46.58,2.906,86.225,2.906,86.225
		s0.916,0.088,1.132,0.08c0,0-3.544-54.37-2.893-86.305C260.06,63.936,265.231,35.055,270.424,16.688z"/>
	<path fill="#3A6D33" d="M218.612,56.768c0,0,4.912,2.676-2.836,15.228c-7.75,12.552-8.563,31.351,24.601,27.436l-0.045-0.729
		c0,0-22.226,2.239-25.744-5.811c-3.228-7.39-3.26-10.254,1.979-20.733C221.808,61.682,222.293,57.257,218.612,56.768z"/>
	<path fill="#3A6D33" d="M276.188,84.812c0,0,17.273,4.864,21.037-8.07c3.768-12.933,0-33.74,0-33.74s1.064-1.541,2.211,8.692
		c1.146,10.232,6.768,40.929-23.385,34.298L276.188,84.812z"/>
	<path fill="#3A6D33" d="M275.47,91.299c0,0,25.932,3.945,31.334-7.926c5.403-11.869,0-41.233,0-41.233s0.246-1.169,1.229,4.315
		c0.984,5.485,3.968,26.346,0.166,35.527c0,0-1.051,14.312-32.819,10.185L275.47,91.299z"/>
	<path fill="#3A6D33" d="M280.539,25.221c0,0-9.397,29.921-12.454,79.032c-3.057,49.11,2.339,76.333,2.339,76.333l1.045-0.48
		c0,0-3.493-32.186-3.165-44.962c0.326-12.776,0.766-45.629,3.821-62.11c3.054-16.481,8.996-46.738,8.996-46.738L280.539,25.221z"/>
	<g>
		<path fill="#9FDD62" d="M253.763,19.84c0,0-1.939-3.182-3.742-5.31C250.021,14.53,251.442,18.056,253.763,19.84z"/>
		<path fill="#9FDD62" d="M253.793,19.867c0,0,1.005-3.588,1.332-6.357C255.125,13.51,253.519,16.955,253.793,19.867z"/>
		<path fill="#9FDD62" d="M253.763,19.925c0,0,3.223-1.868,5.391-3.622C259.153,16.303,255.599,17.647,253.763,19.925z"/>
	</g>
	<g>
		<path fill="#9FDD62" d="M268.742,20.86c0,0-1.94-3.182-3.741-5.31C265.001,15.551,266.424,19.076,268.742,20.86z"/>
		<path fill="#9FDD62" d="M268.772,20.887c0,0,1.006-3.588,1.332-6.357C270.104,14.53,268.498,17.976,268.772,20.887z"/>
		<path fill="#9FDD62" d="M268.742,20.945c0,0,3.225-1.868,5.393-3.621C274.135,17.324,270.578,18.667,268.742,20.945z"/>
	</g>
	<g>
		<path fill="#9FDD62" d="M266.046,33.392c0,0-1.939-3.182-3.74-5.31C262.306,28.082,263.729,31.607,266.046,33.392z"/>
		<path fill="#9FDD62" d="M266.078,33.418c0,0,1.003-3.588,1.331-6.357C267.409,27.061,265.802,30.506,266.078,33.418z"/>
		<path fill="#9FDD62" d="M266.046,33.476c0,0,3.225-1.869,5.393-3.621C271.438,29.855,267.881,31.198,266.046,33.476z"/>
	</g>
	<g>
		<path fill="#9FDD62" d="M263.515,44.045c0,0-1.938-3.182-3.738-5.31C259.774,38.736,261.196,42.261,263.515,44.045z"/>
		<path fill="#9FDD62" d="M263.547,44.072c0,0,1.005-3.588,1.332-6.357C264.879,37.715,263.271,41.16,263.547,44.072z"/>
		<path fill="#9FDD62" d="M263.515,44.13c0,0,3.228-1.869,5.395-3.622C268.908,40.509,265.353,41.852,263.515,44.13z"/>
	</g>
	<g>
		<path fill="#9FDD62" d="M261.479,58.172c0,0-1.938-3.182-3.738-5.31C257.74,52.863,259.162,56.388,261.479,58.172z"/>
		<path fill="#9FDD62" d="M261.513,58.199c0,0,1.004-3.588,1.33-6.357C262.843,51.842,261.235,55.288,261.513,58.199z"/>
		<path fill="#9FDD62" d="M261.479,58.257c0,0,3.227-1.868,5.394-3.621C266.872,54.636,263.315,55.979,261.479,58.257z"/>
	</g>
	<g>
		<path fill="#9FDD62" d="M258.95,75.773c0,0-1.939-3.182-3.74-5.31C255.21,70.464,256.631,73.989,258.95,75.773z"/>
		<path fill="#9FDD62" d="M258.981,75.8c0,0,1.004-3.588,1.332-6.357C260.313,69.443,258.705,72.888,258.981,75.8z"/>
		<path fill="#9FDD62" d="M258.95,75.857c0,0,3.224-1.868,5.391-3.621C264.341,72.237,260.785,73.58,258.95,75.857z"/>
	</g>
	<g>
		<path fill="#9FDD62" d="M258.123,90.045c0,0-1.938-3.182-3.74-5.31C254.383,84.735,255.806,88.26,258.123,90.045z"/>
		<path fill="#9FDD62" d="M258.155,90.072c0,0,1.004-3.589,1.332-6.357C259.487,83.715,257.879,87.16,258.155,90.072z"/>
		<path fill="#9FDD62" d="M258.123,90.129c0,0,3.226-1.868,5.394-3.621C263.517,86.508,259.96,87.852,258.123,90.129z"/>
	</g>
	<g>
		<path fill="#9FDD62" d="M269.599,92.734c0,0-1.939-3.182-3.74-5.311C265.856,87.424,267.28,90.95,269.599,92.734z"/>
		<path fill="#9FDD62" d="M269.629,92.761c0,0,1.004-3.588,1.333-6.357C270.962,86.403,269.354,89.849,269.629,92.761z"/>
		<path fill="#9FDD62" d="M269.599,92.818c0,0,3.223-1.868,5.393-3.622C274.99,89.197,271.433,90.541,269.599,92.818z"/>
	</g>
	<g>
		<path fill="#9FDD62" d="M258.806,115.626c0,0-1.938-3.182-3.74-5.31C255.063,110.317,256.487,113.842,258.806,115.626z"/>
		<path fill="#9FDD62" d="M258.838,115.653c0,0,1.004-3.589,1.331-6.357C260.169,109.296,258.562,112.741,258.838,115.653z"/>
		<path fill="#9FDD62" d="M258.806,115.71c0,0,3.225-1.868,5.394-3.621C264.198,112.09,260.642,113.433,258.806,115.71z"/>
	</g>
	<g>
		<path fill="#9FDD62" d="M259.344,138.92c0,0-1.94-3.181-3.741-5.31C255.603,133.611,257.026,137.136,259.344,138.92z"/>
		<path fill="#9FDD62" d="M259.375,138.948c0,0,1.004-3.589,1.332-6.357C260.707,132.59,259.101,136.036,259.375,138.948z"/>
		<path fill="#9FDD62" d="M259.344,139.004c0,0,3.224-1.867,5.392-3.621C264.733,135.384,261.179,136.728,259.344,139.004z"/>
	</g>
	<g>
		<path fill="#9FDD62" d="M267.772,138.536c0,0-1.939-3.182-3.74-5.31C264.032,133.226,265.455,136.751,267.772,138.536z"/>
		<path fill="#9FDD62" d="M267.804,138.562c0,0,1.004-3.589,1.332-6.357C269.136,132.206,267.528,135.65,267.804,138.562z"/>
		<path fill="#9FDD62" d="M267.772,138.62c0,0,3.224-1.868,5.392-3.621C273.164,134.999,269.606,136.342,267.772,138.62z"/>
	</g>
	<g>
		<path fill="#9FDD62" d="M269.537,160.466c0,0-1.938-3.182-3.74-5.309C265.797,155.158,267.22,158.683,269.537,160.466z"/>
		<path fill="#9FDD62" d="M269.569,160.494c0,0,1.002-3.589,1.33-6.356C270.899,154.136,269.293,157.582,269.569,160.494z"/>
		<path fill="#9FDD62" d="M269.537,160.55c0,0,3.226-1.867,5.392-3.62C274.929,156.93,271.372,158.274,269.537,160.55z"/>
	</g>
	<g>
		<path fill="#9FDD62" d="M270.075,175.992c0,0-1.939-3.182-3.741-5.31C266.334,170.682,267.757,174.208,270.075,175.992z"/>
		<path fill="#9FDD62" d="M270.106,176.019c0,0,1.002-3.59,1.33-6.355C271.438,169.664,269.83,173.106,270.106,176.019z"/>
		<path fill="#9FDD62" d="M270.075,176.078c0,0,3.224-1.869,5.391-3.621C275.466,172.457,271.909,173.798,270.075,176.078z"/>
	</g>
	<g>
		<path fill="#9FDD62" d="M260.817,159.775c0,0-2.775-2.486-5.113-4.007C255.704,155.768,258.083,158.734,260.817,159.775z"/>
		<path fill="#9FDD62" d="M260.854,159.791c0,0-0.073-3.725-0.56-6.47C260.296,153.321,259.751,157.082,260.854,159.791z"/>
		<path fill="#9FDD62" d="M260.841,159.854c0,0,2.549-2.718,4.119-5.021C264.96,154.833,261.94,157.144,260.841,159.854z"/>
	</g>
	<g>
		<path fill="#9FDD62" d="M261.653,179.324c0,0-2.774-2.486-5.111-4.005C256.542,175.319,258.92,178.285,261.653,179.324z"/>
		<path fill="#9FDD62" d="M261.692,179.339c0,0-0.073-3.727-0.56-6.471C261.134,172.869,260.588,176.63,261.692,179.339z"/>
		<path fill="#9FDD62" d="M261.677,179.404c0,0,2.551-2.72,4.12-5.023C265.797,174.38,262.778,176.694,261.677,179.404z"/>
	</g>
	<g>
		<path fill="#9FDD62" d="M267.916,115.626c0,0-1.938-3.182-3.739-5.31C264.177,110.316,265.599,113.842,267.916,115.626z"/>
		<path fill="#9FDD62" d="M267.948,115.653c0,0,1.004-3.589,1.33-6.357C269.278,109.296,267.671,112.741,267.948,115.653z"/>
		<path fill="#9FDD62" d="M267.916,115.71c0,0,3.226-1.868,5.394-3.621C273.31,112.09,269.753,113.433,267.916,115.71z"/>
	</g>
	<g>
		<path fill="#9FDD62" d="M270.612,77.17c0,0-1.939-3.182-3.74-5.31C266.872,71.86,268.294,75.386,270.612,77.17z"/>
		<path fill="#9FDD62" d="M270.646,77.197c0,0,1.002-3.589,1.332-6.357C271.978,70.84,270.368,74.285,270.646,77.197z"/>
		<path fill="#9FDD62" d="M270.612,77.254c0,0,3.225-1.868,5.392-3.621C276.004,73.634,272.446,74.977,270.612,77.254z"/>
	</g>
	<g>
		<path fill="#9FDD62" d="M274.164,61.709c0,0-1.938-3.182-3.74-5.31C270.424,56.4,271.847,59.925,274.164,61.709z"/>
		<path fill="#9FDD62" d="M274.196,61.736c0,0,1.003-3.588,1.332-6.357C275.528,55.379,273.92,58.824,274.196,61.736z"/>
		<path fill="#9FDD62" d="M274.164,61.794c0,0,3.226-1.869,5.392-3.622C279.556,58.172,275.999,59.516,274.164,61.794z"/>
	</g>
	<g>
		<path fill="#9FDD62" d="M282.255,87.083c0,0-1.938-3.182-3.738-5.31C278.517,81.772,279.938,85.298,282.255,87.083z"/>
		<path fill="#9FDD62" d="M282.287,87.109c0,0,1.004-3.588,1.331-6.357C283.618,80.752,282.011,84.197,282.287,87.109z"/>
		<path fill="#9FDD62" d="M282.255,87.167c0,0,3.225-1.868,5.393-3.621C287.647,83.545,284.09,84.889,282.255,87.167z"/>
	</g>
	<g>
		<path fill="#9FDD62" d="M294.356,83.074c0,0-1.938-3.182-3.738-5.311C290.618,77.763,292.04,81.289,294.356,83.074z"/>
		<path fill="#9FDD62" d="M294.39,83.1c0,0,1.004-3.588,1.332-6.357C295.722,76.743,294.112,80.188,294.39,83.1z"/>
		<path fill="#9FDD62" d="M294.356,83.158c0,0,3.224-1.868,5.394-3.621C299.75,79.537,296.192,80.88,294.356,83.158z"/>
	</g>
	<g>
		<path fill="#9FDD62" d="M299.461,69.359c0,0-1.938-3.182-3.739-5.31C295.722,64.049,297.144,67.574,299.461,69.359z"/>
		<path fill="#9FDD62" d="M299.493,69.385c0,0,1.003-3.588,1.332-6.357C300.825,63.028,299.217,66.473,299.493,69.385z"/>
		<path fill="#9FDD62" d="M299.461,69.443c0,0,3.224-1.868,5.392-3.622C304.853,65.821,301.296,67.166,299.461,69.443z"/>
	</g>
	<g>
		<path fill="#9FDD62" d="M298.635,53.949c0,0-1.938-3.182-3.739-5.311C294.896,48.638,296.315,52.164,298.635,53.949z"/>
		<path fill="#9FDD62" d="M298.666,53.975c0,0,1.004-3.588,1.333-6.357C299.999,47.618,298.392,51.063,298.666,53.975z"/>
		<path fill="#9FDD62" d="M298.635,54.033c0,0,3.224-1.868,5.394-3.621C304.026,50.412,300.47,51.755,298.635,54.033z"/>
	</g>
	<g>
		<path fill="#9FDD62" d="M307.767,47.195c0,0-1.938-3.181-3.738-5.31C304.026,41.885,305.45,45.411,307.767,47.195z"/>
		<path fill="#9FDD62" d="M307.798,47.222c0,0,1.004-3.588,1.333-6.357C309.131,40.865,307.522,44.31,307.798,47.222z"/>
		<path fill="#9FDD62" d="M307.767,47.279c0,0,3.226-1.868,5.393-3.621C313.158,43.658,309.603,45.002,307.767,47.279z"/>
	</g>
	<g>
		<path fill="#9FDD62" d="M309.638,63.964c0,0-1.938-3.181-3.74-5.31C305.897,58.654,307.319,62.18,309.638,63.964z"/>
		<path fill="#9FDD62" d="M309.668,63.991c0,0,1.004-3.588,1.332-6.357C311,57.634,309.392,61.079,309.668,63.991z"/>
		<path fill="#9FDD62" d="M309.638,64.049c0,0,3.223-1.868,5.393-3.621C315.028,60.428,311.474,61.771,309.638,64.049z"/>
	</g>
	<g>
		<path fill="#9FDD62" d="M308.81,80.887c0,0-1.938-3.182-3.738-5.31C305.071,75.577,306.493,79.102,308.81,80.887z"/>
		<path fill="#9FDD62" d="M308.842,80.914c0,0,1.005-3.588,1.332-6.357C310.174,74.556,308.565,78.001,308.842,80.914z"/>
		<path fill="#9FDD62" d="M308.81,80.971c0,0,3.228-1.868,5.395-3.621C314.203,77.35,310.646,78.693,308.81,80.971z"/>
	</g>
	<g>
		<path fill="#9FDD62" d="M300.504,90.045c0,0-1.938-3.182-3.737-5.31C296.767,84.735,298.188,88.26,300.504,90.045z"/>
		<path fill="#9FDD62" d="M300.536,90.072c0,0,1.004-3.589,1.332-6.357C301.868,83.715,300.261,87.16,300.536,90.072z"/>
		<path fill="#9FDD62" d="M300.504,90.129c0,0,3.226-1.868,5.394-3.621C305.897,86.508,302.341,87.852,300.504,90.129z"/>
	</g>
	<g>
		<path fill="#9FDD62" d="M284.858,93.168c0,0-1.938-3.182-3.737-5.31C281.121,87.858,282.543,91.383,284.858,93.168z"/>
		<path fill="#9FDD62" d="M284.892,93.194c0,0,1.006-3.588,1.332-6.357C286.224,86.837,284.615,90.283,284.892,93.194z"/>
		<path fill="#9FDD62" d="M284.858,93.252c0,0,3.228-1.868,5.395-3.622C290.253,89.631,286.696,90.975,284.858,93.252z"/>
	</g>
	<g>
		<path fill="#9FDD62" d="M276.683,46.351c0,0-1.94-3.182-3.74-5.31C272.94,41.042,274.364,44.566,276.683,46.351z"/>
		<path fill="#9FDD62" d="M276.712,46.378c0,0,1.004-3.588,1.333-6.357C278.045,40.021,276.437,43.466,276.712,46.378z"/>
		<path fill="#9FDD62" d="M276.683,46.435c0,0,3.224-1.868,5.392-3.621C282.073,42.814,278.517,44.158,276.683,46.435z"/>
	</g>
	<g>
		<path fill="#9FDD62" d="M279.793,32.608c0,0-1.94-3.182-3.739-5.31C276.054,27.299,277.476,30.824,279.793,32.608z"/>
		<path fill="#9FDD62" d="M279.824,32.635c0,0,1.003-3.588,1.332-6.357C281.156,26.278,279.548,29.723,279.824,32.635z"/>
		<path fill="#9FDD62" d="M279.793,32.692c0,0,3.224-1.868,5.392-3.621C285.185,29.072,281.628,30.415,279.793,32.692z"/>
	</g>
	<g>
		<path fill="#9FDD62" d="M250.06,31.211c0,0-1.938-3.182-3.738-5.31C246.319,25.902,247.742,29.427,250.06,31.211z"/>
		<path fill="#9FDD62" d="M250.092,31.238c0,0,1.003-3.588,1.331-6.357C251.423,24.881,249.815,28.327,250.092,31.238z"/>
		<path fill="#9FDD62" d="M250.06,31.295c0,0,3.225-1.868,5.394-3.621C255.452,27.675,251.896,29.018,250.06,31.295z"/>
	</g>
	<g>
		<path fill="#9FDD62" d="M246.547,43.228c0,0-1.94-3.182-3.739-5.311C242.808,37.917,244.229,41.443,246.547,43.228z"/>
		<path fill="#9FDD62" d="M246.579,43.255c0,0,1.003-3.588,1.332-6.357C247.911,36.897,246.304,40.343,246.579,43.255z"/>
		<path fill="#9FDD62" d="M246.547,43.312c0,0,3.224-1.868,5.394-3.622C251.938,39.691,248.383,41.035,246.547,43.312z"/>
	</g>
	<g>
		<path fill="#9FDD62" d="M243.851,58.586c0,0-1.938-3.182-3.74-5.31C240.11,53.276,241.533,56.802,243.851,58.586z"/>
		<path fill="#9FDD62" d="M243.883,58.613c0,0,1.003-3.589,1.331-6.357C245.214,52.256,243.606,55.701,243.883,58.613z"/>
		<path fill="#9FDD62" d="M243.851,58.67c0,0,3.226-1.868,5.393-3.621C249.242,55.05,245.687,56.393,243.851,58.67z"/>
	</g>
	<g>
		<path fill="#9FDD62" d="M219.106,57.335c0,0-1.939-3.182-3.741-5.31C215.365,52.025,216.789,55.55,219.106,57.335z"/>
		<path fill="#9FDD62" d="M219.14,57.362c0,0,1.004-3.589,1.33-6.357C220.47,51.004,218.862,54.449,219.14,57.362z"/>
		<path fill="#9FDD62" d="M219.106,57.419c0,0,3.224-1.868,5.392-3.622C224.498,53.798,220.942,55.142,219.106,57.419z"/>
	</g>
	<g>
		<path fill="#9FDD62" d="M219.106,67.391c0,0-1.939-3.182-3.741-5.31C215.365,62.081,216.788,65.606,219.106,67.391z"/>
		<path fill="#9FDD62" d="M219.14,67.417c0,0,1.004-3.589,1.33-6.357C220.47,61.06,218.862,64.505,219.14,67.417z"/>
		<path fill="#9FDD62" d="M219.106,67.475c0,0,3.224-1.868,5.392-3.621C224.498,63.854,220.942,65.197,219.106,67.475z"/>
	</g>
	<g>
		<path fill="#9FDD62" d="M214.216,78.896c0,0-1.938-3.182-3.738-5.31C210.478,73.586,211.899,77.112,214.216,78.896z"/>
		<path fill="#9FDD62" d="M214.249,78.923c0,0,1.003-3.589,1.33-6.357C215.579,72.566,213.972,76.011,214.249,78.923z"/>
		<path fill="#9FDD62" d="M214.216,78.981c0,0,3.225-1.869,5.395-3.622C219.608,75.36,216.054,76.704,214.216,78.981z"/>
	</g>
	<g>
		<path fill="#9FDD62" d="M212.827,91.685c0,0-1.939-3.182-3.74-5.31C209.087,86.375,210.509,89.9,212.827,91.685z"/>
		<path fill="#9FDD62" d="M212.858,91.711c0,0,1.004-3.588,1.332-6.357C214.19,85.354,212.583,88.799,212.858,91.711z"/>
		<path fill="#9FDD62" d="M212.827,91.769c0,0,3.224-1.868,5.391-3.621C218.218,88.148,214.661,89.491,212.827,91.769z"/>
	</g>
	<g>
		<path fill="#9FDD62" d="M222.337,98.426c0,0-1.938-3.182-3.738-5.31C218.599,93.117,220.021,96.642,222.337,98.426z"/>
		<path fill="#9FDD62" d="M222.369,98.453c0,0,1.004-3.588,1.331-6.357C223.7,92.096,222.093,95.541,222.369,98.453z"/>
		<path fill="#9FDD62" d="M222.337,98.51c0,0,3.225-1.868,5.393-3.621C227.729,94.89,224.173,96.233,222.337,98.51z"/>
	</g>
	<g>
		<path fill="#9FDD62" d="M235.489,99.891c0,0-1.938-3.182-3.739-5.31C231.75,94.581,233.171,98.107,235.489,99.891z"/>
		<path fill="#9FDD62" d="M235.521,99.917c0,0,1.004-3.589,1.332-6.357C236.854,93.56,235.245,97.005,235.521,99.917z"/>
		<path fill="#9FDD62" d="M235.489,99.975c0,0,3.225-1.868,5.392-3.621C240.881,96.354,237.324,97.698,235.489,99.975z"/>
	</g>
	<g>
		<path fill="#9FDD62" d="M243.247,76.659c0,0-1.939-3.182-3.739-5.311C239.508,71.349,240.931,74.874,243.247,76.659z"/>
		<path fill="#9FDD62" d="M243.278,76.685c0,0,1.004-3.588,1.332-6.357C244.61,70.328,243.003,73.773,243.278,76.685z"/>
		<path fill="#9FDD62" d="M243.247,76.743c0,0,3.225-1.868,5.393-3.621C248.64,73.122,245.083,74.465,243.247,76.743z"/>
	</g>
	<g>
		<path fill="#9FDD62" d="M243.247,91.713c0,0-1.939-3.182-3.739-5.31C239.508,86.403,240.931,89.929,243.247,91.713z"/>
		<path fill="#9FDD62" d="M243.278,91.741c0,0,1.005-3.589,1.332-6.357C244.61,85.383,243.003,88.828,243.278,91.741z"/>
		<path fill="#9FDD62" d="M243.247,91.798c0,0,3.225-1.868,5.393-3.621C248.64,88.177,245.083,89.521,243.247,91.798z"/>
	</g>
	<g>
		<path fill="#9FDD62" d="M244.62,115.655c0,0-1.938-3.182-3.739-5.31C240.881,110.345,242.304,113.871,244.62,115.655z"/>
		<path fill="#9FDD62" d="M244.653,115.682c0,0,1.004-3.588,1.33-6.357C245.983,109.325,244.377,112.77,244.653,115.682z"/>
		<path fill="#9FDD62" d="M244.62,115.739c0,0,3.227-1.868,5.395-3.622C250.015,112.118,246.457,113.462,244.62,115.739z"/>
	</g>
	<g>
		<path fill="#9FDD62" d="M246.491,138.949c0,0-1.939-3.181-3.739-5.31C242.752,133.639,244.174,137.165,246.491,138.949z"/>
		<path fill="#9FDD62" d="M246.522,138.976c0,0,1.004-3.588,1.332-6.357C247.854,132.619,246.247,136.064,246.522,138.976z"/>
		<path fill="#9FDD62" d="M246.491,139.033c0,0,3.224-1.868,5.393-3.621C251.884,135.413,248.327,136.756,246.491,139.033z"/>
	</g>
	<g>
		<path fill="#9FDD62" d="M249.188,161.856c0,0-1.938-3.183-3.74-5.31C245.446,156.546,246.87,160.07,249.188,161.856z"/>
		<path fill="#9FDD62" d="M249.219,161.88c0,0,1.005-3.588,1.332-6.355C250.551,155.525,248.942,158.971,249.219,161.88z"/>
		<path fill="#9FDD62" d="M249.188,161.94c0,0,3.224-1.868,5.392-3.621C254.579,158.319,251.022,159.662,249.188,161.94z"/>
	</g>
	<g>
		<path fill="#9FDD62" d="M251.058,177.865c0,0-1.938-3.183-3.74-5.312C247.317,172.552,248.739,176.08,251.058,177.865z"/>
		<path fill="#9FDD62" d="M251.09,177.888c0,0,1.003-3.588,1.332-6.355C252.422,171.533,250.812,174.978,251.09,177.888z"/>
		<path fill="#9FDD62" d="M251.058,177.947c0,0,3.226-1.867,5.393-3.621C256.449,174.326,252.894,175.667,251.058,177.947z"/>
	</g>
</g>
<g>
	<path fill="#B9A085" d="M208.011,175.772c0,0-16.437-7.495-15.871-14.396c0,0-0.755-2.362-2.08,0
		c-1.323,2.363-0.552,11.666,7.429,16.188C205.47,182.08,208.011,175.772,208.011,175.772z"/>
	<path fill="#B9A085" d="M224.565,184.348c0,0,15.418,6.051,18.652,3.925c3.232-2.129,10.182-10.495,10.465-7.801
		c0.284,2.695-5.246,11.595-12.338,13.525c-7.088,1.932-19.615-4.164-19.615-4.164L224.565,184.348z"/>
	<path opacity="0.3" fill="#3F1B06" enable-background="new    " d="M223.024,187.333c3.304,1.746,8.77,4.227,14.688,5.192
		c6.969,1.138,12.273-7.497,14.635-12.248c0.762-0.461,1.264-0.487,1.336,0.194c0.284,2.695-5.246,11.595-12.338,13.525
		c-7.088,1.932-19.615-4.164-19.615-4.164L223.024,187.333z"/>
	<path opacity="0.3" fill="#3F1B06" enable-background="new    " d="M197.489,177.564c-7.98-4.52-8.75-13.818-7.43-16.188
		c2.018,12.256,14.433,15.953,14.433,15.953l-3.56,1.641C199.916,178.733,198.775,178.291,197.489,177.564z"/>
	<path fill="#EAE6E1" d="M224.565,184.348c0,0-1.605,5.39-2.836,5.485c-1.229,0.092-1.985,0-1.985,0s0.853,3.211,0,5.291
		c-0.851,2.08-2.836,6.24-5.576,6.336c-2.741,0.094-5.104-2.459-5.104-2.459s-12.573,2.742-15.219,11.533
		c0,0-8.321,7.657-18.531,3.592c0,0-1.89-5.198-7.184-3.688c-5.294,1.514-8.981,2.363-8.981,2.363s-6.333,0.662-8.319-2.741
		c0,0,4.065-3.687,8.508-8.886s18.245-9.358,19.758-12.762c1.512-3.404,2.363-6.713,2.363-6.713s4.726-2.931,12.385-3.498
		C201.499,177.634,210.575,170.261,224.565,184.348z"/>
	<g opacity="0.2">
		<path fill="#3F1B06" d="M221.729,189.833c-1.229,0.092-1.985,0-1.985,0s0.853,3.211,0,5.291c-0.851,2.08-2.836,6.24-5.576,6.336
			c-2.741,0.094-5.104-2.459-5.104-2.459c0.756-1.418-3.498-1.418-4.442-1.418c-0.946,0,3.687-4.633,3.687-8.508
			s3.498-2.553,9.83-1.039c2.355,0.561,3.848,0.627,4.793,0.488C222.533,189.259,222.112,189.802,221.729,189.833z"/>
		<path fill="#3F1B06" d="M162.456,209.023c2.554-1.041,8.698-5.955,14.202-9.742c5.503-3.787,4.234,2.368,1.398,6.34
			c-2.837,3.969-1.703,8.129,6.617,5.672c8.318-2.457,8.602-9.074,10.397-12.291c1.518-2.715,9.912,0.168,12.94,0.275
			c-3.077,0.881-11.988,4.02-14.167,11.258c0,0-8.321,7.658-18.531,3.592c0,0-1.89-5.197-7.184-3.687
			c-5.294,1.515-8.981,2.362-8.981,2.362s-0.046,0.007-0.125,0.013C159.695,211.507,160.876,209.667,162.456,209.023z"/>
	</g>
	<path fill="#30170E" d="M177.11,196.261c0,0-8.604,4.011-6.712,1.58c1.891-2.432,1.797-3.282,0.946-2.904
		c-0.852,0.377-10.21,6.523-10.21,8.695C161.133,205.809,174.463,202.216,177.11,196.261z"/>
	<path fill="#FFFFFF" d="M202.705,196c0,0-4.254,2.908-7.374,0c-3.12-2.904-4.396-2.978-4.396-2.978s0.923-1.103,2.056-1.437
		C194.126,191.25,202.656,193.617,202.705,196z"/>
	<path fill="#30170E" d="M206.228,187.562c0,0,0,2.553-1.135,4.16s-0.473,3.39-3.498,3.822c-3.025,0.433-5.389-1.459-6.429-2.594
		c-1.04-1.134-2.174-1.314-2.174-1.365C192.991,191.535,196.395,180.19,206.228,187.562z"/>
	<path fill="#FFFFFF" d="M222.274,183.949c0,0,1.631,2.534-4.894,1.123c-6.522-1.408-8.649,0.641-10.493-0.348
		c-1.843-0.989-5.176-3.825-10.423-0.775c-5.247,3.049-9.926-0.568-9.288-2.199c0.638-1.631,8.768-1.488,12.432-3.262
		C203.272,176.714,212.631,175.792,222.274,183.949z"/>
	<path fill="#FFFFFF" d="M190.06,186.533c0,0-3.071-0.484-4.017-2.467c-0.946-1.986-4.396-0.095-4.537,2.883
		c-0.142,2.979-9.833,9.264-8.083,9.075c1.748-0.188,4.537-1.465,6.996-2.222C182.878,193.044,189.21,190.136,190.06,186.533z"/>
	<path opacity="0.2" fill="#3F1B06" enable-background="new    " d="M217.878,189.638c0,0-7.516-1.934-7.303-0.516
		c0.212,1.418-1.797,6.578-2.564,6.904c-0.768,0.327,8.945,2.881,9.301,0.682C217.666,194.509,217.878,189.638,217.878,189.638z"/>
	<path opacity="0.2" fill="#3F1B06" enable-background="new    " d="M164.915,210.535c0,0,8.413-6.709,10.777-8.602
		c2.364-1.893,2.458-0.329,0.946,2.341c-1.513,2.669-2.909,7.466-2.909,7.466s-1.346-2.623-3.52-2.339
		S164.915,210.535,164.915,210.535z"/>
</g>
<g>
	<circle fill="#FFB64C" cx="116.951" cy="100.65" r="22.113"/>
	<g>
		<circle fill="#FFFFFF" cx="124.485" cy="114.697" r="8.23"/>
		<circle fill="#FFFFFF" cx="144.461" cy="118.727" r="4.201"/>
		<path fill="#FFFFFF" d="M124.485,122.927c2.424,0,19.976,0,19.976,0v-4.201c0,0-5.459-14.375-18.833-3.287L124.485,122.927z"/>
	</g>
</g>
<path fill="#85601E" d="M82.952,204.887c0.014-0.013,0.029-0.021,0.043-0.033c0,0-0.015,0.006-0.045,0.017
	c-0.128-1.035-0.407-2.004-0.83-2.664c0.174-0.113,0.373-0.248,0.538-0.383c0,0-0.292,0.109-0.584,0.311
	c-0.075-0.11-0.153-0.209-0.233-0.297c0.036-0.17,0.069-0.353,0.089-0.52c0,0-0.089,0.188-0.158,0.446
	c-0.067-0.068-0.138-0.128-0.21-0.179c-0.039-0.099-0.053-0.039-0.053-0.039v0.002c-0.241-0.157-0.507-0.239-0.804-0.217
	c-0.393,0.03-0.691,0.16-0.914,0.362c-0.007,0.005-0.012,0.011-0.012,0.011c-1.224,1.127-0.257,4.498-0.888,6.096
	c-0.05,0.127-0.112,0.238-0.183,0.339c-0.042-0.054-0.083-0.104-0.123-0.152c0,0,0.031,0.079,0.09,0.195
	c-0.327,0.422-0.847,0.604-1.406,0.659c0.019-0.106,0.038-0.213,0.049-0.315c0,0-0.061,0.13-0.123,0.322
	c-0.228,0.019-0.46,0.015-0.688,0c-0.038-0.048-0.073-0.093-0.111-0.138c0,0,0.022,0.052,0.061,0.133
	c-0.146-0.012-0.29-0.027-0.426-0.047c0.343-2.907,0.732-5.438,1.001-7.119c0.002-0.002,0.004-0.006,0.007-0.006
	c0,0-0.003,0-0.007,0c0.053-0.33,0.101-0.627,0.143-0.889c0.009-0.068,0.019-0.136,0.025-0.201c0.004-0.021,0.004-0.043,0.005-0.064
	c0.005-0.042,0.009-0.087,0.011-0.13c0.002-0.024,0.002-0.054,0.002-0.077c0.001-0.037,0.001-0.077,0.001-0.113
	c0-0.027,0-0.056,0-0.082c-0.001-0.037-0.001-0.072-0.003-0.107c-0.002-0.027-0.004-0.057-0.006-0.082
	c-0.002-0.035-0.006-0.07-0.01-0.104c-0.002-0.027-0.006-0.057-0.009-0.08c-0.004-0.033-0.01-0.07-0.014-0.104
	c-0.006-0.025-0.01-0.053-0.016-0.077c-0.003-0.017-0.005-0.034-0.009-0.048c0.152-0.1,0.312-0.215,0.448-0.325
	c0,0-0.219,0.083-0.467,0.235c-0.002-0.016-0.006-0.027-0.011-0.041c-0.007-0.032-0.017-0.066-0.025-0.102
	c-0.008-0.023-0.014-0.047-0.019-0.07c-0.012-0.032-0.025-0.067-0.036-0.103c-0.005-0.021-0.014-0.044-0.021-0.062
	c-0.014-0.041-0.028-0.078-0.043-0.116c-0.007-0.017-0.012-0.032-0.021-0.05c-0.025-0.062-0.055-0.125-0.085-0.186
	c0-0.004,0-0.008,0.002-0.014c0,0-0.002,0.005-0.004,0.01c-0.001-0.003-0.001-0.004-0.003-0.005l0,0l-0.01-0.021
	c-0.015-0.035-0.033-0.065-0.051-0.101c-0.007-0.015-0.016-0.026-0.023-0.041c-0.002-0.002-0.004-0.005-0.006-0.01l-0.014-0.022l0,0
	c-0.014-0.025-0.028-0.051-0.043-0.074c-0.009-0.018-0.021-0.032-0.033-0.051c-0.02-0.031-0.039-0.062-0.062-0.094
	c-0.011-0.018-0.025-0.035-0.037-0.053c-0.022-0.028-0.042-0.059-0.063-0.085c-0.014-0.019-0.028-0.035-0.042-0.054
	c-0.021-0.027-0.045-0.056-0.067-0.082c-0.014-0.018-0.03-0.035-0.043-0.051c-0.024-0.025-0.047-0.055-0.071-0.076
	c-0.015-0.02-0.029-0.033-0.045-0.047c-0.025-0.029-0.052-0.053-0.077-0.078c-0.016-0.016-0.03-0.029-0.045-0.043
	c-0.028-0.025-0.056-0.051-0.085-0.078c-0.014-0.014-0.028-0.025-0.042-0.037c-0.031-0.026-0.062-0.055-0.097-0.078
	c-0.011-0.01-0.023-0.021-0.035-0.03c-0.04-0.028-0.079-0.06-0.12-0.088c-0.006-0.004-0.013-0.009-0.018-0.013
	c-0.095-0.066-0.193-0.131-0.294-0.189h-0.002c0.057-0.043,0.112-0.087,0.165-0.129c0,0-0.09,0.035-0.218,0.102
	c-0.032-0.02-0.064-0.037-0.097-0.053c-0.01-0.007-0.022-0.012-0.034-0.018c-0.04-0.021-0.079-0.041-0.12-0.061
	c-0.014-0.007-0.027-0.013-0.044-0.018c-0.037-0.02-0.075-0.033-0.114-0.053c-0.014-0.004-0.028-0.01-0.043-0.016c0,0,0,0,0-0.002
	v0.002c0-0.002-0.001-0.002-0.003-0.002c-0.036-0.014-0.071-0.027-0.107-0.041c0.022-0.115,0.042-0.234,0.053-0.349
	c0,0-0.061,0.132-0.122,0.325c-0.033-0.012-0.069-0.023-0.104-0.032c-0.016-0.006-0.032-0.013-0.049-0.017
	c-0.04-0.012-0.079-0.021-0.121-0.03c-0.016-0.005-0.031-0.011-0.048-0.013c-0.042-0.014-0.083-0.022-0.126-0.029
	c-0.014-0.004-0.028-0.008-0.042-0.008c-0.047-0.01-0.092-0.02-0.14-0.023c-0.01-0.003-0.02-0.004-0.029-0.007
	c-0.618-0.089-1.26-0.024-1.866,0.226v-0.002v0.002c-0.06,0.022-0.118,0.051-0.178,0.078c0.047-0.203,0.092-0.441,0.118-0.652
	c0,0-0.152,0.324-0.217,0.703c-0.077,0.039-0.152,0.086-0.227,0.131c-0.13-0.196-0.308-0.449-0.478-0.65
	c0,0,0.149,0.373,0.408,0.693c-0.758,0.492-1.415,1.33-1.818,2.582c-0.602,1.865-0.652,5.635-0.462,9.748
	c-0.01-0.012-0.018-0.023-0.027-0.035c0,0,0.009,0.027,0.029,0.07c0.003,0.078,0.008,0.158,0.012,0.238
	c-0.778,0.018-2.017-0.078-2.097-0.83c-0.002-0.018-0.004-0.033-0.004-0.053c-0.001-0.008-0.001-0.014-0.001-0.021
	c0-0.013-0.002-0.023-0.002-0.035c0-0.008,0-0.017,0-0.022c-0.002-0.013-0.002-0.024-0.002-0.037c0-0.009,0-0.019,0-0.024
	c0-0.015,0-0.024,0-0.039c0-0.008,0-0.02,0-0.026c0-0.015,0-0.026,0-0.038c0-0.01,0-0.021,0-0.027c0-0.014,0-0.027,0-0.045
	c0.002-0.007,0.002-0.018,0.002-0.027c0-0.014,0-0.027,0.002-0.043c0-0.01,0-0.02,0-0.026c0.001-0.017,0.001-0.033,0.001-0.05
	c0-0.01,0.002-0.02,0.002-0.025c0-0.018,0.002-0.035,0.002-0.054c0-0.009,0.002-0.017,0.002-0.022c0-0.021,0.002-0.041,0.004-0.062
	c0-0.003,0-0.01,0-0.016c0.083-1.346,0.381-3.625-0.961-4.076l0,0c-0.028-0.01-0.055-0.019-0.082-0.024h-0.002
	c-0.028-0.007-0.056-0.015-0.084-0.021l0,0c-0.089-0.02-0.184-0.029-0.284-0.033c0.205-0.127,0.513-0.327,0.75-0.52
	c0,0-0.501,0.191-0.847,0.52c-0.03,0-0.06,0-0.089,0.001c0.055-0.212,0.164-0.657,0.207-1.022c0,0-0.249,0.531-0.244,1.026
	c-0.023,0.004-0.046,0.007-0.067,0.01c-0.117-0.185-0.37-0.571-0.611-0.854c0,0,0.211,0.522,0.563,0.863
	c-2.142,0.381-3.347,5.373-1.449,7.405c1.497,1.604,4.22,1.187,5.446,0.892c0.033,0.48,0.067,0.963,0.104,1.442
	c-0.018-0.021-0.035-0.044-0.051-0.062c0,0,0.019,0.047,0.055,0.125c0.111,1.442,0.237,2.859,0.368,4.187
	c-0.03-0.034-0.058-0.069-0.085-0.103c0,0,0.031,0.08,0.093,0.201c0.145,1.465,0.288,2.816,0.418,3.967
	c-0.007-0.01-0.016-0.021-0.025-0.027c0,0,0.011,0.023,0.029,0.064c0.138,1.221,0.258,2.211,0.341,2.865
	c-0.012-0.015-0.021-0.025-0.031-0.039c0,0,0.012,0.033,0.038,0.086c0.065,0.527,0.104,0.823,0.104,0.823
	c0.19,0.106,0.372,0.203,0.549,0.287l0,0l0,0c0.071,0.033,0.14,0.063,0.209,0.097l0,0l0,0c0.604,0.262,1.138,0.393,1.602,0.434l0,0
	c0,0,0.166,0.015,0.205,0.014c0,0,0,0,0-0.003c0.16,0.005,0.31,0,0.452-0.015l0,0l0,0c0.111-0.01,0.218-0.023,0.318-0.045
	c0.002,0,0.004,0,0.004,0c0.269-0.053,0.5-0.135,0.693-0.227l0,0l0.19-0.087c0,0,0-0.003,0-0.011
	c0.235-0.133,0.398-0.271,0.487-0.357c0,0,0.002,0,0.002-0.002c0.008-0.008,0.014-0.014,0.02-0.021c0.002,0,0.002,0,0.002,0
	c0.02-0.021,0.034-0.036,0.045-0.047c0,0,0,0,0.002-0.004c0.002,0,0.003-0.004,0.005-0.004v-0.002
	c0.002-0.004,0.004-0.005,0.006-0.005c0-0.003,0-0.003,0-0.003h0.002c-0.04-0.24-0.073-0.484-0.107-0.732
	c0.089-0.063,0.178-0.129,0.257-0.194c0,0-0.112,0.043-0.266,0.122c-0.106-0.842-0.182-1.725-0.229-2.637
	c0.134-0.09,0.276-0.191,0.398-0.291c0,0-0.183,0.069-0.404,0.195c-0.065-1.307-0.078-2.673-0.046-4.058
	c0.046-0.033,0.089-0.068,0.131-0.103c0,0-0.05,0.021-0.128,0.055c0.057-2.528,0.252-5.123,0.503-7.549
	c1.628,0.121,4.588,0.181,6.006-0.806C82.847,209.306,83.203,206.96,82.952,204.887z"/>
</svg>
