<?xml version="1.0" encoding="utf-8"?>
<!-- Generator: Adobe Illustrator 16.0.0, SVG Export Plug-In . SVG Version: 6.00 Build 0)  -->
<!DOCTYPE svg PUBLIC "-//W3C//DTD SVG 1.1//EN" "http://www.w3.org/Graphics/SVG/1.1/DTD/svg11.dtd">
<svg version="1.1" id="Layer_1" xmlns="http://www.w3.org/2000/svg" xmlns:xlink="http://www.w3.org/1999/xlink" x="0px" y="0px"
	 width="397.334px" height="298.667px" viewBox="0 0 397.334 298.667" enable-background="new 0 0 397.334 298.667"
	 xml:space="preserve">
<g id="BACKGROUND">
</g>
<g id="OBJECTS">
	<g>
		<g>
			<g opacity="0.5">
				<path fill="#A2DBF1" d="M214.438,49.855C175.299,62.352,51.327,0.733,61.029,84.899c1.517,12.515,9.577,30.192,2.77,41.876
					c-4.933,8.75-13.975,13.877-22.708,17.279c-22.814,9.273-31.309,26.682-25.531,51.525
					c15.454,66.945,99.581,51.069,143.745,31.219c31.408-14.771,68.45-17.309,100.973-4.812
					c25.479,10.175,41.361,31.521,71.267,25.267c26.521-5.321,30.522-30.359,22.778-53.668c-4.399-14.42-7.559-20.512,1.168-34.432
					c7.354-13.824,20.297-24.299,21.293-40.494c0.218-17.541-7.844-35.217-23.441-41.86c-12.763-5.436-24.33-3.241-36.955-6.583
					c-28.084-7.893-46.131-51.525-80.969-36.52c-8.688,4.101-13.574,13.549-23.039,16.301"/>
			</g>
			<g opacity="0.3">
				<g>
					<g>
						<path fill="#A2DBF1" d="M200.246,43.845c3.547,0,3.547-5.5,0-5.5S196.699,43.845,200.246,43.845L200.246,43.845z"/>
					</g>
				</g>
				<g>
					<g>
						<path fill="#A2DBF1" d="M37.309,128.407c7.094,0,7.094-11,0-11C30.215,117.407,30.215,128.407,37.309,128.407L37.309,128.407z
							"/>
					</g>
				</g>
				<g>
					<g>
						<path fill="#A2DBF1" d="M367.996,172.27c7.094,0,7.094-11,0-11C360.901,161.27,360.901,172.27,367.996,172.27L367.996,172.27z
							"/>
					</g>
				</g>
				<g>
					<g>
						<path fill="#A2DBF1" d="M181.684,41.095c7.094,0,7.094-11,0-11C174.59,30.095,174.59,41.095,181.684,41.095L181.684,41.095z"
							/>
					</g>
				</g>
				<g>
					<g>
						<path fill="#A2DBF1" d="M378.996,154.807c9.222,0,9.222-14.3,0-14.3S369.774,154.807,378.996,154.807L378.996,154.807z"/>
					</g>
				</g>
				<g>
					<g>
						<path fill="#A2DBF1" d="M18.747,146.557c9.222,0,9.222-14.3,0-14.3S9.525,146.557,18.747,146.557L18.747,146.557z"/>
					</g>
				</g>
				<g>
					<g>
						<path fill="#A2DBF1" d="M323.996,60.62c9.222,0,9.222-14.3,0-14.3S314.774,60.62,323.996,60.62L323.996,60.62z"/>
					</g>
				</g>
				<g>
					<g>
						<path fill="#A2DBF1" d="M197.496,32.157c10.642,0,10.642-16.5,0-16.5C186.856,15.657,186.856,32.157,197.496,32.157
							L197.496,32.157z"/>
					</g>
				</g>
				<g>
					<g>
						<path fill="#A2DBF1" d="M384.909,167.731c5.32,0,5.32-8.25,0-8.25S379.589,167.731,384.909,167.731L384.909,167.731z"/>
					</g>
				</g>
				<g>
					<g>
						<path fill="#A2DBF1" d="M16.821,123.595c5.32,0,5.32-8.25,0-8.25C11.501,115.345,11.501,123.595,16.821,123.595
							L16.821,123.595z"/>
					</g>
				</g>
				<g>
					<g>
						<path fill="#A2DBF1" d="M341.185,68.595c5.319,0,5.319-8.25,0-8.25C335.864,60.345,335.862,68.595,341.185,68.595
							L341.185,68.595z"/>
					</g>
				</g>
				<g>
					<g>
						<path fill="#A2DBF1" d="M339.81,53.47c3.547,0,3.547-5.5,0-5.5S336.263,53.47,339.81,53.47L339.81,53.47z"/>
					</g>
				</g>
				<g>
					<g>
						<path fill="#A2DBF1" d="M61.234,43.981c7.094,0,7.094-11,0-11C54.14,32.981,54.141,43.981,61.234,43.981L61.234,43.981z"/>
					</g>
				</g>
				<g>
					<g>
						<path fill="#A2DBF1" d="M374.185,233.595c7.094,0,7.094-11,0-11C367.09,222.595,367.09,233.595,374.185,233.595
							L374.185,233.595z"/>
					</g>
				</g>
				<g>
					<g>
						<path fill="#A2DBF1" d="M16.684,238.408c7.094,0,7.094-11,0-11C9.59,227.408,9.59,238.408,16.684,238.408L16.684,238.408z"/>
					</g>
				</g>
				<g>
					<g>
						<path fill="#A2DBF1" d="M77.734,35.731c3.547,0,3.547-5.5,0-5.5S74.188,35.731,77.734,35.731L77.734,35.731z"/>
					</g>
				</g>
				<g>
					<g>
						<path fill="#A2DBF1" d="M374.871,211.595c3.547,0,3.547-5.5,0-5.5S371.324,211.595,374.871,211.595L374.871,211.595z"/>
					</g>
				</g>
				<g>
					<g>
						<path fill="#A2DBF1" d="M33.184,245.283c3.547,0,3.547-5.5,0-5.5S29.637,245.283,33.184,245.283L33.184,245.283z"/>
					</g>
				</g>
			</g>
		</g>
		<g>
			<g>
				<g>
					<g>
						<g>
							<g>
								<path fill="#222221" d="M111.698,152.68c-3.705,1.31-6.151,1.56-8.049-2.188c-1.462-2.885-2.437-5.865-4.277-8.566
									c-3.988-5.854-7.85-6.247-14.236-5.413c-6.338,0.828-14.984-0.792-15.946-8.121c-0.686-5.224-0.726-10.027-3.013-14.914
									c-1.126-2.408-4.682-0.312-3.562,2.082c2.537,5.422,1.428,11.326,3.285,16.849c1.884,5.604,8.157,7.411,13.431,8.04
									c3.985,0.475,7.474-0.486,11.381-0.481c4.196,0.005,7.061,7.203,8.391,10.362c2.772,6.588,6.7,8.797,13.692,6.328
									C115.285,155.778,114.212,151.792,111.698,152.68L111.698,152.68z"/>
							</g>
						</g>
						<g>
							<g>
								<g>
									<path fill="#222221" d="M68.105,107.911c-1.235,1.618-2.745,2.628-4.542,3.533c-1.901,0.958-0.229,3.804,1.666,2.85
										c2.336-1.177,4.135-2.634,5.726-4.717c0.547-0.717,0.112-1.845-0.592-2.258C69.515,106.823,68.65,107.198,68.105,107.911
										L68.105,107.911z"/>
								</g>
							</g>
							<g>
								<g>
									<path fill="#222221" d="M62.197,103.52c0.009,3.489,0.518,6.959,0.55,10.45c0.019,2.127,3.319,2.129,3.3,0
										c-0.032-3.491-0.541-6.961-0.55-10.45C65.491,101.392,62.191,101.391,62.197,103.52L62.197,103.52z"/>
								</g>
							</g>
							<g>
								<g>
									<path fill="#222221" d="M56.63,106.886c2.208,2.76,4.45,5.514,7.483,7.408c1.811,1.13,3.466-1.726,1.666-2.85
										c-2.769-1.729-4.802-4.375-6.816-6.891C57.634,102.891,55.315,105.243,56.63,106.886L56.63,106.886z"/>
								</g>
							</g>
							<g>
								<g>
									<path fill="#222221" d="M53.88,111.835c3.07,2.903,6.897,3.865,10.955,2.625c2.029-0.62,1.164-3.806-0.877-3.183
										c-2.93,0.896-5.503,0.344-7.745-1.775C54.669,108.042,52.331,110.371,53.88,111.835L53.88,111.835z"/>
								</g>
							</g>
						</g>
					</g>
					<g>
						<g>
							<g>
								<path fill="#222221" d="M280.409,162.919c0.148-5.392,1.949-7.189,7.154-7.613c3.381-0.276,6.811-0.229,10.153-0.852
									c5.104-0.951,5.009-7.991,6.983-11.624c3.016-5.549,11.117-4.959,16.347-6.599c5.761-1.806,7.972-6.683,8.312-12.363
									c0.16-2.658-3.967-2.643-4.125,0c-0.506,8.45-6.702,8.744-13.51,10.145c-6,1.234-10.062,4.523-12.148,10.305
									c-0.653,1.81-0.812,5.583-2.954,6.157c-3.488,0.936-7.503,0.508-11.093,0.896c-6.743,0.73-9.067,5.146-9.244,11.547
									C276.211,165.582,280.336,165.574,280.409,162.919L280.409,162.919z"/>
							</g>
						</g>
						<g>
							<g>
								<g>
									<path fill="#222221" d="M319.655,118.808c1.41,3.362,3.84,5.793,7.203,7.203c0.83,0.348,1.813-0.369,2.029-1.153
										c0.262-0.951-0.324-1.682-1.152-2.03c-2.17-0.909-3.988-2.729-4.898-4.897c-0.348-0.829-1.078-1.415-2.029-1.153
										C320.024,116.994,319.308,117.977,319.655,118.808L319.655,118.808z"/>
								</g>
							</g>
							<g>
								<g>
									<path fill="#222221" d="M324.546,114.52c0,2.75,0,5.5,0,8.25c0,2.128,3.301,2.128,3.301,0c0-2.75,0-5.5,0-8.25
										C327.847,112.392,324.546,112.392,324.546,114.52L324.546,114.52z"/>
								</g>
							</g>
							<g>
								<g>
									<path fill="#222221" d="M330.104,115.181c-1,2.885-2.727,5.056-5.076,6.972c-1.648,1.346,0.701,3.666,2.335,2.333
										c2.797-2.282,4.739-5.015,5.924-8.428C333.985,114.042,330.798,113.183,330.104,115.181L330.104,115.181z"/>
								</g>
							</g>
							<g>
								<g>
									<path fill="#222221" d="M334.122,118.637c-1.438,2.279-3.709,3.735-6.164,4.742c-1.941,0.796-1.093,3.99,0.877,3.183
										c3.288-1.348,6.206-3.198,8.137-6.258C338.11,118.497,335.254,116.842,334.122,118.637L334.122,118.637z"/>
								</g>
							</g>
						</g>
					</g>
				</g>
				<g>
					<g>
						<g>
							<path fill="#B3B3B3" d="M300.074,222.685c0,2.886-21.604,3.725-23.939,3.725H114.458c-2.332,0-23.939-0.839-23.939-3.725
								l19.715-29.553c0-2.885,1.893-5.225,4.225-5.225h161.677c2.336,0,4.227,2.34,4.227,5.225L300.074,222.685z"/>
							<g>
								<g>
									<polygon fill="#3E3E3D" points="162.048,216.102 120.496,216.102 127.767,198.501 165.349,198.501 									"/>
									<polygon fill="#3E3E3D" points="228.545,216.102 270.097,216.102 262.824,198.501 225.244,198.501 									"/>
									<polygon fill="#3E3E3D" points="274.715,216.102 289.347,216.102 277.374,198.501 266.336,198.501 									"/>
									<polygon fill="#3E3E3D" points="115.88,216.102 101.247,216.102 113.221,198.501 124.257,198.501 									"/>
									<polygon fill="#3E3E3D" points="224.89,216.102 165.702,216.102 169.002,198.501 221.59,198.501 									"/>
								</g>
								<g>
									<rect x="104.858" y="201.714" fill="#B3B3B3" width="180.877" height="2.693"/>
									<rect x="102.897" y="208.314" fill="#B3B3B3" width="184.8" height="2.693"/>
								</g>
							</g>
						</g>
						<g>
							<path fill="#3E3E3D" d="M301.181,229.53c0,2.333-0.482,4.224-2.813,4.224H92.228c-2.335,0-2.815-1.891-2.815-4.224v-3.622
								c0-2.332,0.48-4.224,2.815-4.224h206.139c2.331,0,2.813,1.892,2.813,4.224V229.53z"/>
							<path fill="#6F6F6F" d="M233.935,227.82c0,1.215-0.984,2.2-2.199,2.2H158.86c-1.216,0-2.2-0.985-2.2-2.2l0,0
								c0-1.215,0.984-2.199,2.2-2.199h72.875C232.949,225.621,233.935,226.605,233.935,227.82L233.935,227.82z"/>
						</g>
					</g>
					<g>
						<path fill="#3E3E3D" d="M282.472,189.144c0,2.333-1.891,4.227-4.226,4.227H112.347c-2.334,0-4.226-1.894-4.226-4.227V80.911
							c0-2.333,1.892-4.226,4.226-4.226h165.899c2.335,0,4.226,1.893,4.226,4.226V189.144L282.472,189.144z"/>
						<g>
							<g>
								<path fill="#FFFFFF" d="M195.297,82.563c2.271,0,2.271-3.521,0-3.521S193.026,82.563,195.297,82.563L195.297,82.563z"/>
							</g>
						</g>
						<g>
							<path fill="#FFFFFF" d="M270.269,182.341c0,2.007-1.627,3.634-3.633,3.634H123.959c-2.006,0-3.635-1.627-3.635-3.634V89.264
								c0-2.007,1.629-3.634,3.635-3.634h142.677c2.006,0,3.633,1.627,3.633,3.634V182.341L270.269,182.341z"/>
							<g>
								<g>
									<g>
										
											<line fill="none" stroke="#425973" stroke-width="3.3" stroke-linecap="round" stroke-linejoin="round" stroke-miterlimit="10" x1="173.47" y1="123.356" x2="161.023" y2="135.801"/>
										
											<line fill="none" stroke="#425973" stroke-width="3.3" stroke-linecap="round" stroke-linejoin="round" stroke-miterlimit="10" x1="173.47" y1="135.803" x2="161.024" y2="123.357"/>
									</g>
									<g>
										
											<line fill="none" stroke="#425973" stroke-width="3.3" stroke-linecap="round" stroke-linejoin="round" stroke-miterlimit="10" x1="229.569" y1="123.356" x2="217.123" y2="135.801"/>
										
											<line fill="none" stroke="#425973" stroke-width="3.3" stroke-linecap="round" stroke-linejoin="round" stroke-miterlimit="10" x1="229.569" y1="135.803" x2="217.125" y2="123.357"/>
									</g>
								</g>
								<g>
									<g>
										<path fill="#DD9AB2" d="M223.983,150.819v12.283c0,2.431-1.971,4.399-4.4,4.399h-2.373c-2.43,0-4.4-1.969-4.4-4.399
											v-12.283"/>
										<g>
											<polygon fill="#D6819F" points="220.326,151.46 218.396,165.761 216.467,151.46 											"/>
										</g>
									</g>
									
										<line fill="none" stroke="#425973" stroke-width="2.75" stroke-linecap="round" stroke-linejoin="round" stroke-miterlimit="10" x1="158.003" y1="150.806" x2="232.59" y2="150.806"/>
								</g>
								<g>
									<g>
										<g>
											<path fill="#E9C2D0" d="M145.797,148.986c7.094,0,7.094-11,0-11C138.703,137.986,138.703,148.986,145.797,148.986
												L145.797,148.986z"/>
										</g>
									</g>
									<g>
										<g>
											<path fill="#E9C2D0" d="M244.797,148.986c7.095,0,7.095-11,0-11C237.703,137.986,237.703,148.986,244.797,148.986
												L244.797,148.986z"/>
										</g>
									</g>
								</g>
							</g>
						</g>
					</g>
				</g>
			</g>
			<g>
				<g>
					<g>
						<path fill="#DB9022" d="M254.146,62.27c0,12.1,0,24.2,0,36.3c0,3.547,5.5,3.547,5.5,0c0-12.1,0-24.2,0-36.3
							C259.646,58.723,254.146,58.723,254.146,62.27L254.146,62.27z"/>
					</g>
				</g>
				<g>
					<g>
						<path fill="#DB9022" d="M256.896,112.595c5.32,0,5.32-8.25,0-8.25C251.576,104.345,251.576,112.595,256.896,112.595
							L256.896,112.595z"/>
					</g>
				</g>
			</g>
		</g>
	</g>
	<g>
		<g>
			<path fill="#A2DBF1" d="M176.731,270.582c0,5.612-2.71,8.662-7.647,8.662s-7.647-3.05-7.647-8.662
				c0-5.615,2.71-8.615,7.647-8.615C174.021,261.964,176.731,264.964,176.731,270.582z M164.679,270.582
				c0,3.896,1.524,5.977,4.429,5.977c2.88,0,4.404-2.08,4.404-5.977c0-3.873-1.524-5.931-4.404-5.931
				C166.204,264.651,164.679,266.708,164.679,270.582z"/>
			<path fill="#A2DBF1" d="M189.516,273.108c0,3.942-1.904,6.086-5.371,6.086c-3.468,0-5.372-2.144-5.372-6.086
				s1.904-6.051,5.372-6.051C187.612,267.057,189.516,269.166,189.516,273.108z M181.051,273.108c0,2.735,1.071,4.199,3.11,4.199
				c2.023,0,3.094-1.464,3.094-4.199c0-2.721-1.071-4.164-3.094-4.164C182.122,268.944,181.051,270.387,181.051,273.108z"/>
			<path fill="#A2DBF1" d="M201.942,273.108c0,3.942-1.903,6.086-5.372,6.086c-3.468,0-5.372-2.144-5.372-6.086
				s1.904-6.051,5.372-6.051C200.039,267.057,201.942,269.166,201.942,273.108z M193.478,273.108c0,2.735,1.071,4.199,3.11,4.199
				c2.023,0,3.093-1.464,3.093-4.199c0-2.721-1.07-4.164-3.093-4.164C194.549,268.944,193.478,270.387,193.478,273.108z"/>
			<path fill="#A2DBF1" d="M212.16,270.762c0,3.213-2.873,3.637-3.772,3.637h-2.107v4.231c0,0.308-0.272,0.478-0.902,0.478h-0.406
				c-0.63,0-0.902-0.17-0.902-0.478v-10.844c0-0.426,0.188-0.611,0.613-0.611h3.535C209.713,267.175,212.16,267.619,212.16,270.762z
				 M206.278,269.063v3.435h1.921c0.663,0,1.7-0.289,1.7-1.734c0-1.395-1.004-1.699-1.785-1.699L206.278,269.063L206.278,269.063z"
				/>
			<path fill="#A2DBF1" d="M220.049,268.178c0,0.391-0.459,1.274-0.782,1.274c-0.238,0-0.8-0.51-2.021-0.51
				c-1.311,0-1.803,0.611-1.803,1.309c0,1.054,0.936,1.377,2.006,1.801c1.428,0.578,3.128,1.259,3.128,3.57
				c0,2.517-1.802,3.57-3.808,3.57c-2.363,0-3.824-0.867-3.824-1.395c0-0.441,0.594-1.309,0.883-1.309
				c0.271,0,1.156,0.815,2.652,0.815c0.936,0,1.836-0.427,1.836-1.479c0-1.14-1.31-1.494-2.603-2.058
				c-1.274-0.562-2.532-1.272-2.532-3.384c0-2.227,1.836-3.329,3.928-3.329C218.604,267.057,220.049,267.6,220.049,268.178z"/>
			<path fill="#A2DBF1" d="M223.789,277.221v1.409c0,0.308-0.272,0.478-0.901,0.478h-0.441c-0.629,0-0.9-0.17-0.9-0.478v-1.409
				c0-0.308,0.271-0.478,0.9-0.478h0.441C223.517,276.746,223.789,276.916,223.789,277.221z"/>
			<path fill="#A2DBF1" d="M227.153,277.221v1.409c0,0.308-0.271,0.478-0.899,0.478h-0.44c-0.629,0-0.901-0.17-0.901-0.478v-1.409
				c0-0.308,0.272-0.478,0.901-0.478h0.44C226.883,276.746,227.153,276.916,227.153,277.221z"/>
			<path fill="#A2DBF1" d="M230.521,277.221v1.409c0,0.308-0.271,0.478-0.9,0.478h-0.441c-0.63,0-0.9-0.17-0.9-0.478v-1.409
				c0-0.308,0.271-0.478,0.9-0.478h0.441C230.249,276.746,230.521,276.916,230.521,277.221z"/>
		</g>
	</g>
</g>
<g id="DESIGNED_BY_FREEPIK">
</g>
</svg>
